<?xml version="1.0" encoding="UTF-8"?>
<svg width="68px" height="60px" viewBox="0 0 68 60" version="1.1" xmlns="http://www.w3.org/2000/svg" xmlns:xlink="http://www.w3.org/1999/xlink">
    <!-- Generator: Sketch 55.2 (78181) - https://sketchapp.com -->
    <title>Group 4</title>
    <desc>Created with Sketch.</desc>
    <g id="Dashboard" stroke="none" stroke-width="1" fill="none" fill-rule="evenodd">
        <g id="Project-Transactions---No-Transactions" transform="translate(-807.000000, -336.000000)" fill-rule="nonzero">
            <g id="TransactionsTable" transform="translate(320.000000, 276.000000)">
                <g id="Group-3" transform="translate(310.000000, 60.000000)">
                    <g id="Group-4" transform="translate(177.000000, 0.000000)">
                        <g id="triangle" opacity="0.5" fill="#7E50EC">
                            <path d="M66.0250285,46.6336634 L41.2455079,4.45544554 C40.0655307,2.37623762 38.0005707,0.891089109 35.6406164,0.297029703 C33.280662,-0.297029703 30.9207077,0 28.8557476,1.18811881 C27.6757704,1.78217822 26.4957933,2.97029703 25.9058047,4.15841584 C25.9058047,4.15841584 25.9058047,4.15841584 25.9058047,4.15841584 L1.12628407,46.6336634 C-1.23367027,50.7920792 0.241301193,56.4356436 4.3712213,58.8118812 C5.55119847,59.7029703 7.02616993,60 8.5011414,60 L58.6501712,60 C61.0101256,60 63.3700799,59.1089109 64.8450514,57.3267327 C66.6150171,55.5445545 67.5,53.4653465 67.5,51.0891089 C67.2050057,49.6039604 66.9100114,47.8217822 66.0250285,46.6336634 Z M60.7151313,53.1683168 C60.1251427,53.7623762 59.2401598,54.0594059 58.6501712,54.0594059 L8.5011414,54.0594059 C7.91115281,54.0594059 7.61615852,54.0594059 7.02616993,53.7623762 C5.55119847,52.8712871 5.25620417,51.0891089 5.84619276,49.6039604 L30.9207077,7.72277228 C31.215702,7.42574257 31.5106963,6.83168317 31.8056905,6.83168317 C33.280662,5.94059406 35.0506278,6.53465347 35.9356106,7.72277228 L61.0101256,49.6039604 C61.3051198,49.9009901 61.3051198,50.4950495 61.3051198,51.0891089 C61.6001141,51.980198 61.0101256,52.5742574 60.7151313,53.1683168 L60.7151313,53.1683168 Z" id="Shape"></path>
                        </g>
                        <g id="transaction" transform="translate(14.000000, 21.000000)" fill="#FFFFFF">
                            <polygon id="Path" points="16.61 2.09333333 0 2.09333333 0 14.6266667 16.61 31.2366667"></polygon>
                            <polygon id="Path" points="40 2.09333333 23.39 2.09333333 23.39 31.2366667 40 14.6266667"></polygon>
                        </g>
                    </g>
                </g>
            </g>
        </g>
    </g>
</svg>