<svg xmlns="http://www.w3.org/2000/svg" viewBox="0 0 358.8 208.8"><title>2key logo2</title><path d="M354.45,104.33c.07-2.6.12-5.24.12-8a8,8,0,0,0-16.07,0c0,6-.19,11.63-.56,17-1.21,11.21-4.82,21.15-9.82,26.22a12,12,0,0,1-18.21-.48c-7.68-8.62-10-27.55-8.39-41.8a8,8,0,0,0-16-1.84,99.64,99.64,0,0,0,0,22.19c-.07.65-.14,1.3-.23,2-3.47,27.93-15.42,33.79-24.83,33.79a27.74,27.74,0,0,1-8.76-1.69l.46-.51c9-10.18,14.4-23.36,14.4-35.27,0-7.65-2.23-14.27-6.45-19.14-3.34-3.85-9.56-8.44-20.21-8.44-8.86,0-16.49,4.29-21.5,12.07-7.18,11.14-7.86,27.71-1.71,41.24a40.57,40.57,0,0,0,6.4,9.82,32.74,32.74,0,0,1-10.55,1.92c-11.28,0-27.57-13.86-36.94-23.87A136.78,136.78,0,0,0,202.52,101a8,8,0,0,0-13.15-9.25,117.64,117.64,0,0,1-27.82,28.2l.06-23.55a8,8,0,0,0-8-8.06h0a8,8,0,0,0-8,8l-.12,47.1-.46-.38-1.05-.82-1.77-1.37-1.09-.81-1.89-1.38-.95-.68-2.41-1.66-.48-.32q-1.53-1-3.09-2l-.19-.12c-.95-.6-1.9-1.18-2.86-1.75l-.69-.41L126,130.32l-.78-.44c-.84-.46-1.69-.92-2.54-1.36l-.67-.36c-1-.54-2.08-1.07-3.14-1.59l0,0-.77-.36-2.29-1.09-1.58-.7-1.61-.71L111,123l-1.81-.73-1-.4-.4-.15c-.69-.27-1.38-.52-2.07-.78a139.46,139.46,0,0,0,12.71-19,97.52,97.52,0,0,0,11-30.07A66.72,66.72,0,0,0,130.34,55,59.63,59.63,0,0,0,129,46.36a53.37,53.37,0,0,0-2.79-8.4A51.16,51.16,0,0,0,122,30.14a55.19,55.19,0,0,0-5.28-7c-1-1.07-1.94-2.15-3-3.12s-2.08-2-3.15-2.89a58.06,58.06,0,0,0-7-5.16A51.09,51.09,0,0,0,87.18,5.21a50.49,50.49,0,0,0-17.87-.54A57.94,57.94,0,0,0,52.72,9.81,64.71,64.71,0,0,0,38.5,19.12a59.45,59.45,0,0,0-11.4,13,43.56,43.56,0,0,0-4.16,8.37A30.84,30.84,0,0,0,21,51v0a9.92,9.92,0,1,0,19.84,0v0a11.5,11.5,0,0,1,.76-3.66,24.65,24.65,0,0,1,2.28-4.53,39.89,39.89,0,0,1,7.58-8.6A42,42,0,0,1,72.18,24.3,30.53,30.53,0,0,1,83,24.61,31.42,31.42,0,0,1,93.1,28.78a42.58,42.58,0,0,1,8.79,7.51,35.46,35.46,0,0,1,3.41,4.52,32.66,32.66,0,0,1,2.61,4.92,35.47,35.47,0,0,1,2.65,10.9,46.8,46.8,0,0,1-.63,11.86,77.7,77.7,0,0,1-8.85,23.87,124.78,124.78,0,0,1-15.44,21.75l-.87,1-2-.37-1.53-.25c-.64-.11-1.29-.21-1.93-.3l-1-.16-.7-.08-1.84-.23-1.7-.19c-1.09-.12-2.18-.21-3.28-.3h-.1l-1.11-.07c-.79-.05-1.59-.1-2.39-.13l-1.64,0-2,0H62c-.83,0-1.66,0-2.49,0l-1,0c-2.49.1-5,.28-7.49.57l-.67.08c-1,.11-1.95.25-2.93.39l-.57.08-.62.11-1,.17c-.49.08-1,.19-1.46.28l-1.25.24c-1.06.22-2.11.46-3.17.72l-.43.1q-1.84.47-3.66,1l-.84.26c-.92.28-1.83.58-2.74.9l-.52.17-.67.26c-.8.29-1.6.6-2.39.93l-1.25.5c-.81.35-1.62.72-2.42,1.09l-.89.4-.21.11c-1,.51-2.09,1-3.13,1.61L20,123l-.21.11-.93.53-.18.11-.2.11-.5.29-.11.07-.82.48a22.17,22.17,0,0,0-2.89,2.16,26.93,26.93,0,0,0-9.74,17.62,23.3,23.3,0,0,0,.3,7.14c0,.09,0,.17,0,.26.07.33.15.67.24,1,0,.07,0,.14,0,.21a.84.84,0,0,1,0,.17c.09.32.18.63.29.95.05.16.1.32.16.48s.2.58.32.87c.17.44.36.87.56,1.3v0l.07.13c.17.34.34.68.52,1,0,.08.09.15.13.22l.18.3c.2.35.41.68.62,1l.23.34.65.9.25.33c.28.35.57.7.87,1a.27.27,0,0,0,.07.08v0c.32.35.65.69,1,1l.3.28q.38.36.75.69l.36.31c.24.2.49.41.74.6l.37.28c.27.21.55.41.83.6l.24.17,0,0c.39.26.78.5,1.17.73l.13.08,1,.57.34.18.44.22.21.09c.63.3,1.27.57,1.92.82l.05,0q1,.38,2,.66l.24.07c.65.18,1.31.34,2,.47l.46.08.61.11c.44.08.89.13,1.34.18h.06c.66.07,1.33.11,2,.13h.51c.58,0,1.17,0,1.75,0h.18l.42,0c.6,0,1.2-.11,1.8-.19l.31,0h.13c.47-.08.94-.16,1.4-.27l.64-.14h0l.15,0,.07,0,.07,0,.23-.06a90.32,90.32,0,0,0,15.27-5.35,132.3,132.3,0,0,0,26.6-16.23,160.33,160.33,0,0,0,14.53-12.74l.23.06c.6.16,1.2.33,1.79.51l1.17.34c.91.28,1.82.56,2.73.86l.65.22c.81.27,1.6.55,2.4.84l.87.32c.76.28,1.52.56,2.28.86l.56.22c.91.36,1.82.73,2.73,1.12l.17.07c1.23.52,2.45,1.07,3.66,1.63s2.62,1.25,3.92,1.91l.78.39q2.2,1.14,4.36,2.35l.44.25q2.23,1.28,4.43,2.64h0q2.14,1.35,4.25,2.79c.22.14.43.29.64.44q2.06,1.41,4,2.89l.41.31q1.8,1.36,3.55,2.79l.7.58c1.21,1,2.4,2,3.56,3.06l.82.74q1.8,1.64,3.53,3.33l0,0,.07.07a8,8,0,0,0,4.18,2.11,7.65,7.65,0,0,0,1.73.2h0a8,8,0,0,0,8-8l.06-23.7c8.83,9.93,30.54,31.72,51.08,31.72a51.27,51.27,0,0,0,25-6.49c7.63,4.19,15.9,6.49,22.87,6.49,15.35,0,27.2-8.4,34.28-23.71a37.72,37.72,0,0,0,3.12,4,28.07,28.07,0,0,0,21.4,9.79,27.55,27.55,0,0,0,8-1.17,67.74,67.74,0,0,1-3.52,6.11c-10.58,16.21-27.23,24.09-50.91,24.09a8,8,0,0,0,0,16.07c29.12,0,50.78-10.56,64.37-31.38,9.51-14.58,15-34,16.76-59A90.41,90.41,0,0,0,354.45,104.33Zm-311,42.05a70.28,70.28,0,0,1-11.94,4.21l-.37.09h0a6.52,6.52,0,0,1-1,.16l-.24,0a6.38,6.38,0,0,1-1.07,0l-.22,0a7.78,7.78,0,0,1-1.09-.21l-.08,0a5.66,5.66,0,0,1-1-.36l-.21-.09-.18-.09a3.13,3.13,0,0,1-.36-.22,1.37,1.37,0,0,1-.2-.13,3.55,3.55,0,0,1-.31-.23l-.11-.09a3.85,3.85,0,0,1-.6-.66.21.21,0,0,0,0-.06l-.12-.21,0-.08c0-.06-.05-.12-.07-.2l0-.06a3.76,3.76,0,0,1-.07-1.36,7.66,7.66,0,0,1,2.62-4.53c.35-.28.73-.51,1.1-.8.1-.07.14-.12.27-.2l.09-.06,0,0,.48-.29,1-.58c.78-.44,1.56-.88,2.36-1.29l.8-.4c.59-.29,1.18-.58,1.79-.85l.91-.4q.89-.39,1.8-.75l.87-.34c.7-.27,1.41-.52,2.12-.76l.59-.2c.93-.31,1.87-.6,2.83-.86l.28-.08c.83-.22,1.67-.43,2.51-.63l1-.22,2-.41.92-.17c.79-.14,1.59-.26,2.38-.38l.5-.07c2-.28,4.05-.48,6.09-.61l.83-.05,2.09-.09,1.24,0h3.59l-1.11.89A112.41,112.41,0,0,1,43.47,146.38Zm193.94-3.2a26.41,26.41,0,0,1-6-8.19c-3.86-8.48-3.61-19.37.59-25.89,2-3.16,4.65-4.69,8-4.69,3.69,0,6.4,1,8.06,2.89,2.09,2.41,2.53,6,2.53,8.61C250.53,127.32,244.94,136.67,237.41,143.18Z" style="fill:#fff"/></svg>
