<svg width="768" height="166" viewBox="0 0 768 166" fill="none" xmlns="http://www.w3.org/2000/svg">
<path d="M146.325 30.2225C145.586 29.3306 144.24 29.2829 143.421 30.1018L112.609 60.9143C111.917 61.6064 111.833 62.695 112.364 63.5171C119.861 75.1195 119.861 90.0618 112.364 101.664C111.833 102.486 111.917 103.575 112.609 104.267L143.421 135.08C144.24 135.898 145.586 135.851 146.325 134.959C171.467 104.595 171.467 60.5859 146.325 30.2225Z" fill="#fff"/>
<path d="M30.2234 18.8571C29.3314 19.5957 29.2838 20.9415 30.1027 21.7603L60.9151 52.5728C61.6072 53.2649 62.6959 53.3486 63.5179 52.8174C75.1204 45.3204 90.0627 45.3204 101.665 52.8174C102.487 53.3486 103.576 53.2649 104.268 52.5728L135.08 21.7603C135.899 20.9415 135.852 19.5957 134.96 18.8571C104.596 -6.2857 60.5867 -6.2857 30.2234 18.8571Z" fill="#fff"/>
<path d="M104.268 112.609C103.576 111.917 102.487 111.833 101.665 112.365C90.0627 119.862 75.1204 119.862 63.5179 112.365C62.6959 111.833 61.6072 111.917 60.9151 112.609L30.1027 143.422C29.2838 144.241 29.3314 145.586 30.2234 146.325C60.5867 171.468 104.596 171.468 134.96 146.325C135.852 145.586 135.899 144.241 135.08 143.422L104.268 112.609Z" fill="#fff"/>
<path d="M52.8174 63.5171C53.3486 62.695 53.2649 61.6064 52.5728 60.9143L21.7603 30.1018C20.9415 29.2829 19.5957 29.3306 18.8571 30.2225C-6.2857 60.5859 -6.2857 104.595 18.8571 134.959C19.5957 135.851 20.9415 135.898 21.7603 135.079L52.5728 104.267C53.2649 103.575 53.3486 102.486 52.8174 101.664C45.3204 90.0618 45.3204 75.1195 52.8174 63.5171Z" fill="#fff"/>
<path d="M206.227 42.4359H241.784C250.282 42.4359 257.773 44.0759 264.259 47.3558C270.819 50.5611 275.887 55.1082 279.466 60.9972C283.118 66.8861 284.944 73.744 284.944 81.5711C284.944 89.3981 283.118 96.2561 279.466 102.145C275.887 108.034 270.819 112.618 264.259 115.898C257.773 119.104 250.282 120.706 241.784 120.706H206.227V42.4359ZM240.889 105.835C248.716 105.835 254.941 103.673 259.563 99.3496C264.259 94.9516 266.607 89.0254 266.607 81.5711C266.607 74.1167 264.259 68.2278 259.563 63.9043C254.941 59.5063 248.716 57.3073 240.889 57.3073H224.341V105.835H240.889ZM352.947 90.8517C352.947 91.0753 352.835 92.6407 352.612 95.5479H307.103C307.923 99.2751 309.861 102.22 312.917 104.381C315.974 106.543 319.775 107.624 324.322 107.624C327.453 107.624 330.211 107.177 332.597 106.282C335.057 105.313 337.33 103.822 339.417 101.81L348.698 111.873C343.033 118.358 334.758 121.601 323.875 121.601C317.092 121.601 311.091 120.296 305.873 117.687C300.655 115.004 296.63 111.314 293.797 106.618C290.964 101.921 289.548 96.5915 289.548 90.6281C289.548 84.7391 290.927 79.4466 293.685 74.7504C296.518 69.9796 300.357 66.2897 305.202 63.6807C310.122 60.9972 315.601 59.6554 321.639 59.6554C327.528 59.6554 332.858 60.9226 337.628 63.4571C342.399 65.9915 346.126 69.6442 348.81 74.4149C351.568 79.1111 352.947 84.5901 352.947 90.8517ZM321.751 72.8495C317.8 72.8495 314.483 73.9677 311.799 76.204C309.116 78.4402 307.476 81.4965 306.879 85.3728H336.51C335.914 81.5711 334.274 78.5521 331.59 76.3158C328.907 74.0049 325.627 72.8495 321.751 72.8495ZM380.55 56.9718V77.6575H416.777V92.1935H380.55V120.706H362.436V42.4359H421.586V56.9718H380.55ZM428.172 60.5499H445.615V120.706H428.172V60.5499ZM436.894 52.1638C433.688 52.1638 431.079 51.232 429.067 49.3684C427.054 47.5048 426.048 45.194 426.048 42.4359C426.048 39.6778 427.054 37.367 429.067 35.5034C431.079 33.6398 433.688 32.708 436.894 32.708C440.099 32.708 442.708 33.6026 444.721 35.3916C446.733 37.1806 447.74 39.4169 447.74 42.1005C447.74 45.0077 446.733 47.4303 444.721 49.3684C442.708 51.232 440.099 52.1638 436.894 52.1638ZM510.635 121.377C504.821 121.377 499.23 120.445 493.863 118.582C488.571 116.718 484.471 114.258 481.564 111.202L484.806 104.829C487.639 107.661 491.403 109.972 496.1 111.761C500.796 113.476 505.641 114.333 510.635 114.333C517.642 114.333 522.898 113.066 526.401 110.531C529.905 107.922 531.657 104.568 531.657 100.468C531.657 97.3369 530.688 94.8397 528.749 92.9762C526.886 91.1126 524.575 89.6963 521.817 88.7272C519.059 87.6836 515.22 86.5655 510.3 85.3728C504.411 83.8819 499.715 82.4656 496.211 81.1238C492.708 79.7075 489.689 77.583 487.154 74.7504C484.694 71.9177 483.464 68.0788 483.464 63.2335C483.464 59.2827 484.508 55.7046 486.595 52.4992C488.682 49.2193 491.888 46.6103 496.211 44.6722C500.535 42.7341 505.902 41.765 512.313 41.765C516.785 41.765 521.146 42.3986 525.395 43.6659C529.718 44.8586 533.446 46.5358 536.576 48.6975L533.781 55.2946C530.501 53.1329 526.998 51.5302 523.27 50.4866C519.543 49.3684 515.891 48.8094 512.313 48.8094C505.455 48.8094 500.274 50.1511 496.77 52.8347C493.341 55.4437 491.627 58.8354 491.627 63.0098C491.627 66.1406 492.559 68.6751 494.422 70.6132C496.36 72.4768 498.746 73.9304 501.578 74.974C504.486 75.9431 508.362 77.0239 513.207 78.2166C518.947 79.6329 523.569 81.0493 527.072 82.4656C530.65 83.8074 533.669 85.8946 536.129 88.7272C538.589 91.4853 539.819 95.2497 539.819 100.02C539.819 103.971 538.738 107.587 536.576 110.867C534.489 114.072 531.247 116.644 526.849 118.582C522.451 120.445 517.046 121.377 510.635 121.377ZM573.39 61.4444C581.068 61.4444 586.957 63.3825 591.056 67.2588C595.156 71.0605 597.206 76.7258 597.206 84.2546V120.706H589.603V111.537C587.814 114.594 585.168 116.979 581.664 118.694C578.235 120.408 574.135 121.265 569.364 121.265C562.805 121.265 557.587 119.7 553.71 116.569C549.834 113.438 547.896 109.301 547.896 104.158C547.896 99.1632 549.685 95.1379 553.263 92.0816C556.916 89.0254 562.693 87.4972 570.594 87.4972H589.267V83.9192C589.267 78.8502 587.851 75.0113 585.018 72.4023C582.186 69.7187 578.049 68.3769 572.607 68.3769C568.88 68.3769 565.302 69.0105 561.873 70.2778C558.444 71.4705 555.499 73.1477 553.039 75.3094L549.461 69.3833C552.443 66.8488 556.021 64.9107 560.196 63.5689C564.37 62.1526 568.768 61.4444 573.39 61.4444ZM570.594 115.004C575.067 115.004 578.906 113.997 582.111 111.985C585.317 109.897 587.702 106.916 589.267 103.039V93.4234H570.818C560.755 93.4234 555.723 96.9269 555.723 103.934C555.723 107.363 557.027 110.084 559.636 112.096C562.245 114.035 565.898 115.004 570.594 115.004ZM663.745 61.8917L637.58 120.706H629.418L603.365 61.8917H611.639L633.667 111.985L655.918 61.8917H663.745ZM721.144 93.7589H671.946C672.393 99.8714 674.741 104.829 678.99 108.63C683.239 112.357 688.606 114.221 695.091 114.221C698.744 114.221 702.098 113.587 705.155 112.32C708.211 110.978 710.857 109.04 713.093 106.506L717.566 111.649C714.957 114.78 711.677 117.165 707.726 118.805C703.85 120.445 699.564 121.265 694.868 121.265C688.83 121.265 683.463 119.998 678.766 117.464C674.145 114.855 670.529 111.277 667.92 106.729C665.311 102.182 664.007 97.0388 664.007 91.2989C664.007 85.5591 665.237 80.4156 667.697 75.8685C670.231 71.3214 673.66 67.7806 677.984 65.2461C682.382 62.7116 687.301 61.4444 692.743 61.4444C698.185 61.4444 703.067 62.7116 707.391 65.2461C711.714 67.7806 715.106 71.3214 717.566 75.8685C720.026 80.3411 721.256 85.4846 721.256 91.2989L721.144 93.7589ZM692.743 68.2651C687.078 68.2651 682.307 70.0914 678.431 73.744C674.629 77.3221 672.467 82.0183 671.946 87.8327H713.652C713.131 82.0183 710.932 77.3221 707.055 73.744C703.254 70.0914 698.483 68.2651 692.743 68.2651ZM741.664 73.4086C743.527 69.4578 746.286 66.4761 749.938 64.4634C753.665 62.4507 758.25 61.4444 763.691 61.4444V69.1596L761.79 69.0478C755.603 69.0478 750.758 70.9487 747.255 74.7504C743.751 78.5521 741.999 83.8819 741.999 90.7399V120.706H734.06V61.8917H741.664V73.4086Z" fill="#fff"/>
</svg>
