<?xml version="1.0" encoding="UTF-8"?>
<svg width="649px" height="167px" viewBox="0 0 649 167" version="1.1" xmlns="http://www.w3.org/2000/svg" xmlns:xlink="http://www.w3.org/1999/xlink">
    <g id="Page-1" stroke="none" stroke-width="1" fill="none" fill-rule="evenodd">
        <g id="Artboard" fill="#fff">
            <path d="M87.6439996,0.188647275 C95.6999172,0.565941824 106.362161,2.64106185 110.674447,4.71618187 C111.716977,5.18780006 112.854283,5.61225642 113.233385,5.61225642 C113.612487,5.61225642 114.702405,5.98955097 115.65016,6.46116916 C120.29416,8.77209828 122.61616,9.85682011 123.090037,9.85682011 C123.421752,9.85682011 123.895629,10.1869528 124.227343,10.5170856 C124.51167,10.8943801 125.743751,11.696131 126.975833,12.2620729 C128.160527,12.8280147 130.245588,14.2428692 131.66722,15.3747529 C133.041465,16.5066365 134.368322,17.4027111 134.652648,17.4027111 C134.889587,17.4027111 135.126526,17.6385202 135.126526,17.8743293 C135.126526,18.1573002 135.505628,18.4874329 135.979505,18.6760802 C137.306363,19.1476984 148.347708,29.9005931 148.395096,30.7495058 C148.395096,30.9843716 149.241441,32.154928 150.278285,33.3764191 L150.302927,33.4047162 C151.339771,34.6262073 152.186116,35.7967636 152.186116,36.0316295 C152.186116,36.2202768 152.707382,37.1163513 153.37081,37.965264 C154.034239,38.8141768 154.555504,39.6159277 154.555504,39.7574132 C154.555504,39.9460604 155.124157,40.842135 155.882361,41.879695 C156.593177,42.8700932 157.58832,44.6150805 158.062197,45.7469641 C158.536075,46.8788478 159.673381,49.3312624 160.52636,51.1705733 C161.426728,53.0098842 162.137544,54.8491951 162.137544,55.2264897 C162.137544,55.6509461 162.469258,56.5941824 162.84836,57.3016097 C163.227462,58.0561988 163.559176,58.9994352 163.559176,59.4238916 C163.559176,59.8483479 163.985666,61.4990116 164.506932,63.1496752 C165.028197,64.7531771 165.549462,66.7339735 165.644238,67.5357244 C165.786401,68.3846371 166.118115,70.4125953 166.402442,72.1104208 C167.018482,75.694719 167.208033,87.39085 166.734156,92.1541937 C165.59685,102.576956 161.80583,114.88619 157.351381,122.573567 C157.114442,122.950861 156.687953,123.70545 156.451014,124.22423 C156.166687,124.74301 155.550647,125.827732 155.029381,126.582321 C154.508116,127.384072 153.844688,128.563118 153.560361,129.270545 C153.276035,129.930811 152.754769,130.638238 152.375667,130.779723 C151.996565,130.921209 151.712239,131.251341 151.712239,131.534312 C151.712239,132.005931 149.864116,134.411183 146.973464,137.853996 C142.850729,142.664502 133.231016,151.342276 131.998934,151.342276 C131.856771,151.342276 131.24073,151.813894 130.62469,152.379836 C129.108282,153.841853 119.678119,158.935329 115.934487,160.350184 C115.413222,160.538831 114.228528,161.010449 113.233385,161.434905 C112.28563,161.859362 111.337875,162.189494 111.100936,162.189494 C110.81661,162.189494 110.011018,162.519627 109.252814,162.896922 C107.594243,163.698673 98.9222843,165.820955 95.557754,166.198249 C94.2782847,166.339735 90.9137544,166.575544 88.0704893,166.717029 L83,167 L83.0947755,146.107314 L83.2369388,125.26179 L84.4216325,125.120305 C93.2831419,124.035583 102.286815,119.979667 108.589385,114.273087 C110.81661,112.29229 112.854283,110.264332 113.091222,109.839876 C113.375548,109.415419 114.418079,107.953403 115.460609,106.538548 C119.772895,100.737645 122.473996,92.342841 123.042649,82.9576391 C123.184813,80.8353572 122.047507,73.5252753 121.052364,70.223948 C120.199384,67.2527535 117.024405,60.7915843 115.413222,58.5749788 C114.797181,57.7732279 114.275916,56.9243152 114.275916,56.7356679 C114.275916,56.5470206 113.802038,55.933917 113.233385,55.3679751 C112.617344,54.8020333 111.574814,53.7173115 110.911385,52.9627224 C109.347589,51.2177351 106.314773,48.5295114 105.983059,48.5295114 C105.793508,48.5295114 104.987916,48.0107314 104.182325,47.3976278 C99.7752638,44.1434623 91.9088972,41.1722677 85.5115508,40.2761932 L83,39.9460604 L83,0 L87.6439996,0.188647275 Z M57.8400193,4.05529689 C57.6504126,3.86613531 56.8919856,4.10258729 52.8628425,5.71046071 C50.6349633,6.60897821 43.0032922,10.4395002 41.2494299,11.5271793 C40.4910029,12.0000832 38.974149,12.8513103 37.8839103,13.4187951 C36.7936716,13.9389894 35.3242194,15.0266685 34.5657924,15.7833148 C33.8073655,16.5399611 32.9067335,17.2020266 32.6223234,17.2020266 C32.2905116,17.2020266 32.0061015,17.4384786 32.0061015,17.6749306 C32.0061015,17.958673 31.626888,18.2897057 31.2002728,18.4788673 C30.2522392,18.8099001 27.5977448,21.1744198 23.378995,25.4778457 C20.0608771,28.7881734 14.4200767,36.0708942 11.9551891,40.1851585 C9.67990824,43.9210997 5.46115835,52.6698227 5.46115835,53.662921 C5.46115835,54.0412442 5.03454319,55.2707945 4.51312467,56.3584735 C3.99170614,57.3988622 3.56509098,58.6757029 3.56509098,59.1486068 C3.56509098,59.6215108 3.04367246,61.9387401 2.42745056,64.3032599 C1.14760509,69.0322993 0.910596673,70.4510112 0.246973095,77.733732 C-0.60625722,86.6243262 0.815793304,99.298152 3.5176893,107.526681 C3.75469772,108.188746 4.18131288,109.560168 4.51312467,110.600556 C5.41375667,113.48527 8.3052594,120.153216 9.77471161,122.659607 C10.01172,123.03793 10.4383352,123.794577 10.6753436,124.314771 C10.9597537,124.834965 11.5759756,125.922644 12.0973941,126.679291 C12.6188127,127.483227 13.2824362,128.665487 13.5668463,129.422133 C13.8512564,130.131489 14.2778716,130.698974 14.51488,130.698974 C14.7518884,130.698974 15.1311019,131.077297 15.273307,131.550201 C15.5577171,132.306848 17.5011861,134.860529 20.1556804,137.981695 C24.279627,142.805315 33.9021688,151.506748 35.1346126,151.506748 C35.2768177,151.506748 35.8930396,151.979652 36.5092615,152.547137 C38.0261153,154.013139 47.4590505,159.120501 51.2037835,160.539213 C51.7252021,160.728375 52.9102442,161.201279 53.9056795,161.626892 C54.8537132,162.052506 55.943952,162.383539 56.3231654,162.383539 C56.7497806,162.383539 57.2237974,162.667281 57.4608058,162.998314 C57.6504126,163.282056 57.887421,127.719679 57.9822244,83.9287737 C58.0296261,40.1378681 57.9822244,4.19716808 57.8400193,4.05529689 Z M609.448085,67.8091766 L609.68172,71.6032752 L609.915354,75.3499475 L611.457341,73.3580458 C612.345152,72.2672424 613.279689,71.366144 613.606778,71.366144 C613.933866,71.366144 614.588042,70.939308 615.055311,70.4176194 C615.52258,69.8959308 616.176756,69.4690948 616.457117,69.4690948 C616.784205,69.4690948 617.298201,69.1371111 617.625289,68.7577013 C617.952377,68.3782914 618.793461,68.0463078 619.494364,68.0463078 C620.148541,68.0463078 620.896171,67.9040291 621.083078,67.7143242 C621.50362,67.2400619 623.185788,67.0503569 626.269762,67.0029307 C630.381727,66.9555045 632.764798,67.477193 635.381503,69.0422587 C635.755318,69.2793898 636.78331,69.8010784 637.67112,70.1804882 C638.979473,70.749603 644.25961,75.6819312 644.25961,76.2984722 C644.25961,76.3933246 645.100694,78.0058165 646.175412,79.950292 C647.203404,81.8947675 648.137941,83.9815218 648.231395,84.645489 C648.278122,85.3094562 648.418302,85.8311448 648.465029,85.8311448 C649.025752,85.8311448 649.212659,96.3123421 648.698664,99.5847521 C648.558483,100.628129 648.231395,101.671506 647.951034,101.956064 C647.717399,102.193195 647.530492,102.809736 647.530492,103.378851 C647.530492,105.086195 643.932522,110.919622 641.502724,113.243507 C640.147645,114.524015 637.67112,116.23136 635.942226,117.037605 C632.998432,118.412966 632.484437,118.507819 627.671568,118.507819 C623.933418,118.507819 622.157796,118.318114 621.129805,117.796425 C615.896395,115.045704 614.588042,114.192032 612.952601,112.294982 L611.083526,110.160802 L610.990072,124.056688 L610.849892,138 L604.401582,137.857721 L598,137.715443 L598.093454,102.76231 L598.233634,67.8091766 L609.448085,67.8091766 Z M548.417855,67.779585 L548.417855,71.7989354 C548.417855,74.1632591 548.608152,75.8182857 548.893599,75.8182857 C549.179045,75.8182857 549.369343,75.5818533 549.369343,75.250848 C549.369343,74.446978 553.88891,70.3803411 555.934609,69.4346116 C556.886097,68.9617469 558.027882,68.4415957 558.456052,68.2051633 C560.121156,67.4012932 565.401914,66.786569 567.828208,67.0702879 C571.253564,67.4958662 575.344962,68.9144604 577.247938,70.3803411 C578.104277,71.0423518 579.008191,71.562503 579.293637,71.562503 C579.531509,71.562503 580.578146,72.555519 581.529634,73.8322538 C582.528696,75.0617021 583.575332,76.2911505 583.813204,76.5275828 C584.431672,77.142307 585.430734,78.6554742 585.811329,79.6012037 C585.954052,79.9794955 586.762817,81.918241 587.571582,83.8569864 C588.85609,87.0724667 588.998813,87.9236233 588.998813,92.6049843 C589.046388,99.7925284 587.66673,104.473889 584.241374,109.202537 C583.622907,110.006407 583.147163,110.857564 583.147163,111.093996 C583.147163,111.661434 580.387848,114.309476 579.341211,114.782341 C578.342149,115.255206 576.72462,116.200935 575.963429,116.768373 C575.582834,117.052092 574.060454,117.666816 572.585647,118.092394 C568.303952,119.416415 560.834772,118.659832 557.361841,116.626513 C555.125844,115.302492 550.796574,111.235855 550.796574,110.479272 C550.796574,110.148266 550.653851,109.864548 550.463554,109.864548 C550.225682,109.864548 550.082959,116.153649 550.082959,123.861344 L550.082959,137.810854 L543.517692,137.905427 L537,138 L537,103.811879 C537,81.1143709 537.142723,69.2927522 537.475744,68.678028 C537.951488,67.874158 538.522381,67.779585 543.184671,67.779585 L548.417855,67.779585 Z M326.819848,52 C332.926757,52 333.159845,52.0474081 333.392933,53.0429791 C333.532786,53.6118768 333.579404,57.2148956 333.486169,61.1023632 L333.346316,68.1187681 L343.602194,68.1187681 L343.742047,72.3380927 C343.928517,78.0744778 343.695429,78.3115185 337.821608,78.3115185 L333.346316,78.3115185 L333.439551,91.7280225 L333.532786,105.097118 L334.744845,106.187506 C335.444109,106.756403 336.329844,107.135669 336.749403,107.040852 C337.215579,106.898628 338.56749,106.708995 339.779548,106.708995 C340.991607,106.661587 342.11043,106.424546 342.250283,106.187506 C342.390136,105.997873 342.996165,105.808241 343.555576,105.808241 C344.581164,105.808241 345.093958,106.519363 345.420281,108.652729 C345.513517,109.031994 345.933075,110.454238 346.352634,111.829075 C347.378222,114.815787 347.191751,115.953583 345.746605,116.143215 C345.093958,116.238032 344.161606,116.617297 343.648812,116.949154 C343.0894,117.328419 341.038224,117.944725 339.080284,118.32399 C333.346316,119.509193 328.871023,119.129928 326.120583,117.233603 C325.467937,116.759521 324.582202,116.238032 324.116025,116.095807 C323.696467,115.906175 323.137055,115.289869 322.857349,114.626155 C322.624261,114.009849 322.204703,113.346135 321.971614,113.156502 C321.691909,113.014278 321.458821,112.350564 321.458821,111.734258 C321.458821,111.117952 321.27235,110.454238 320.992644,110.312014 C320.712938,110.122381 320.526468,104.243772 320.526468,94.1458378 L320.526468,78.3115185 L317.822646,78.3115185 C316.330881,78.3115185 314.885735,78.0744778 314.559412,77.7426208 C314.233088,77.4107638 314,75.6092544 314,73.0492148 C314,68.07136 314.326323,67.6920948 317.962498,67.9765437 L320.526468,68.2135844 L320.526468,52 L326.819848,52 Z M295.146355,117.586517 C296.737011,117.305751 298.187315,116.931397 298.327667,116.697425 C298.468019,116.463453 298.982643,116.276276 299.497267,116.276276 C300.666867,116.276276 305.532404,113.141057 305.906676,112.111582 C306.047028,111.690433 306.795572,110.333398 307.5909,109.023157 C308.7605,107.011001 308.99442,106.215498 308.99442,103.173868 C309.041204,100.27262 308.807284,99.1963507 307.778036,97.0906064 C307.12306,95.6399826 306.140596,94.1425645 305.672756,93.7214157 C304.409588,92.6451464 297.859827,89.6035158 296.737011,89.6035158 C296.222387,89.6035158 295.614195,89.4163385 295.473843,89.1355727 C295.333491,88.9016011 294.725299,88.6676295 294.117107,88.6676295 C293.555699,88.6676295 292.900722,88.4804522 292.666802,88.293275 C292.386098,88.0593034 290.327602,87.4041829 287.988402,86.7958568 C285.695986,86.234325 283.450354,85.4388217 283.029297,85.1112614 C282.655025,84.7369069 282.093617,84.456141 281.859697,84.456141 C281.157937,84.456141 280.315825,82.7715456 280.502961,81.8356593 C280.596529,81.3209218 280.783665,80.3850355 280.970801,79.6831207 C281.111153,78.8408231 281.906481,77.951731 283.122866,77.203022 C284.713522,76.173547 285.462066,75.9863698 288.503026,76.0799584 C290.42117,76.1267527 292.105394,76.3607243 292.245746,76.5946959 C292.386098,76.7818731 292.666802,76.8754618 292.900722,76.7350788 C293.462131,76.4075186 297.111283,78.0453197 300.105459,79.9170923 C302.304307,81.3209218 302.397875,81.3209218 303.052852,80.4318298 C303.427124,79.9638866 304.035316,78.8408231 304.409588,78.0453197 C304.78386,77.203022 305.2517,76.5011072 305.438836,76.5011072 C305.625972,76.5011072 306.140596,75.7523982 306.561652,74.8165118 C307.310196,73.1787108 307.310196,73.1787108 306.18738,72.7575619 C305.579188,72.5235903 305.064564,72.1492358 305.064564,71.9152642 C305.064564,71.5409097 303.988532,70.9325836 299.450483,68.780045 C297.391987,67.7973644 292.29253,66.9550667 288.456242,67.001861 C285.04101,67.001861 281.906481,67.3294212 281.906481,67.6101871 C281.906481,67.6569814 281.345073,67.7973644 280.643313,67.8441587 C279.426929,68.031336 278.397681,68.4992791 275.076017,70.5582291 C273.298225,71.6344983 269.97656,75.6120152 269.97656,76.6414902 C269.97656,76.9690504 269.74264,77.4837879 269.461936,77.7645538 C268.900528,78.3260856 268.432688,84.1285808 268.80696,86.1407364 C269.087664,87.8721261 271.520432,90.820168 274.093553,92.5983521 C275.964913,93.8617986 281.766129,96.0611315 284.058546,96.3418974 C285.50885,96.5290746 290.982578,98.3072587 293.742835,99.5707052 C297.906611,101.442478 298.046963,104.952052 294.070323,107.666122 C292.620018,108.695597 292.29253,108.742391 288.456242,108.742391 C285.462066,108.742391 284.526386,108.602008 282.935729,107.946888 C282.187185,107.619328 281.438641,107.385356 281.204721,107.385356 C280.502961,107.385356 274.327473,104.250137 273.01752,103.267456 L271.707568,102.237981 L271.099376,103.407839 C270.771888,104.06296 270.070128,105.186023 269.50872,105.841144 C268.994096,106.496264 268.57304,107.244973 268.57304,107.478945 C268.57304,107.759711 268.151984,108.461625 267.63736,109.116746 C266.9356,110.052632 266.842032,110.473781 267.216304,110.941724 C267.497008,111.316079 268.011632,111.596844 268.33912,111.596844 C268.666608,111.596844 269.181232,111.924405 269.50872,112.251965 C269.97656,112.907085 272.362544,114.123738 275.590641,115.433978 C276.245617,115.714744 277.134513,116.135893 277.649137,116.369865 C280.502961,117.867283 289.71941,118.475609 295.146355,117.586517 Z M374.710501,117.290497 C376.128509,116.868549 379.153592,115.368292 380.807934,114.289982 C381.32787,114.008683 382.604077,112.789724 383.738483,111.617648 C385.203757,110.11739 385.818227,109.742326 386.007295,110.211157 C386.101829,110.586221 386.574498,111.992712 386.9999,113.352321 C387.661637,115.508941 388.039772,115.884005 389.930449,116.821666 C391.537524,117.571795 392.860998,117.853094 395.12981,117.80621 C400.234637,117.712444 399.998303,118.040626 399.998303,111.617648 C399.998303,107.116875 399.856502,106.085448 399.336566,106.27298 C399.005697,106.41363 398.343961,105.944799 397.871291,105.241553 C397.162288,104.163243 397.067754,102.850518 397.115021,94.5053351 C397.162288,87.9417082 397.020487,84.89431 396.689618,84.6598948 C396.406017,84.4723626 396.169682,83.7691168 396.216949,83.1127542 C396.264216,82.4095084 396.264216,81.7531457 396.216949,81.6124966 C396.169682,81.4718474 396.027882,80.8154848 395.980615,80.112239 C395.838814,79.0339289 395.366145,78.0025018 393.570002,75.0019867 C392.766464,73.6423782 388.465175,69.8917343 387.708904,69.8917343 C387.283502,69.8917343 386.574498,69.610436 386.054562,69.2822547 C384.920156,68.5321259 380.335265,67.1256344 378.728189,67.0787514 C374.521434,66.8443361 368.093133,67.1725175 367.620464,67.5475819 C367.289595,67.8288802 366.816926,68.0164124 366.627858,67.9695293 C366.107922,67.8288802 363.697309,68.4383598 362.421103,68.9540733 C361.901166,69.1884886 360.908561,69.4697869 360.246824,69.610436 C359.585087,69.7510852 358.261614,70.4074479 357.269008,71.0638105 C356.32367,71.7201732 355.378332,72.2358868 355.189264,72.2358868 C355.000196,72.2358868 354.574794,72.423419 354.243926,72.6578342 C353.582189,73.0328986 353.534922,72.8922495 356.087335,78.7057475 C357.079941,80.9561339 357.978012,81.7062627 358.592482,80.7686017 C358.970617,80.112239 365.777054,76.9241917 366.769659,76.9241917 C367.242328,76.9241917 367.904065,76.6897764 368.1404,76.4553612 C368.849403,75.7521155 374.805035,75.7052324 377.168381,76.4084781 C381.280603,77.5336713 383.880283,81.1436661 383.92755,85.6444388 C383.92755,86.9571642 383.78575,88.1292404 383.643949,88.2698896 C383.502148,88.4105387 382.840411,88.2698896 382.131408,87.9417082 C379.106325,86.4414506 372.016287,86.0663862 366.675125,87.0509303 C364.169978,87.5197608 363.83911,87.5666438 362.893772,87.9417082 C356.465471,90.3796268 354.291193,92.1142996 352.211448,96.6150723 C351.927847,97.271435 351.502444,98.1153299 351.313377,98.4903943 C350.887974,99.4280552 350.887974,105.616618 351.360644,106.226097 C351.549711,106.507396 351.927847,107.632589 352.258715,108.757782 C353.204053,112.274011 359.159685,117.243614 362.373836,117.243614 C363.035572,117.243614 363.697309,117.431146 363.83911,117.712444 C364.169978,118.275041 372.725291,117.94686 374.710501,117.290497 Z M441.735402,117.336123 C442.256431,117.241283 442.966925,117.004184 443.298489,116.767085 C443.582687,116.577406 444.008983,116.529986 444.245815,116.672245 C444.43528,116.767085 445.429971,116.482566 446.472029,116.008368 C447.514087,115.48675 448.698244,115.107392 449.124541,115.059972 C449.550837,115.059972 450.40343,114.680614 451.019192,114.206416 C451.634953,113.732218 452.487546,113.16318 452.866476,113.020921 C454.997958,112.072524 459.971417,108.089261 459.971417,107.330544 C459.971417,106.998605 460.681911,105.95537 461.534504,105.006974 C462.955492,103.3947 463.665986,102.114365 465.986933,96.6610879 C466.365864,95.8075314 466.697428,94.432357 466.744794,93.5788006 C466.839526,92.7726639 467.028991,91.776848 467.218457,91.4923291 C467.407922,91.1603905 467.455288,90.1645746 467.313189,89.2635983 C467.123724,88.3152022 467.218457,87.5564854 467.502654,87.3668061 C468.165782,86.9400279 468.165782,80.5857741 467.502654,80.2064156 C467.218457,80.0167364 467.17109,79.3054393 467.313189,78.4993026 C467.502654,77.6457462 467.407922,76.7921897 467.076358,76.4128312 C466.79216,76.0334728 466.650061,75.511855 466.839526,75.2273361 C467.028991,74.9428173 466.981625,74.4686192 466.697428,74.1366806 C466.460596,73.804742 465.986933,72.5244073 465.65537,71.1966527 C465.086974,69.1101813 464.187015,67.1185495 461.9608,63.1352859 C461.013475,61.3333333 457.082074,57.2078103 456.418947,57.2078103 C456.040016,57.2078103 455.566354,56.9232915 455.376889,56.5913529 C454.997958,55.9274756 453.719069,55.1687587 450.498163,53.6039052 C449.598203,53.1771269 448.414047,52.6080893 447.893018,52.3235704 C444.672111,50.6638773 442.209065,50.4267782 426.104532,50.237099 L410,50 L410,118 L425.394038,117.762901 C433.872601,117.620642 441.214373,117.430962 441.735402,117.336123 Z M500.435063,51 C506.174446,51.0009364 506.497462,51.1020685 506.497462,53.200559 C506.497462,53.5751223 506.825159,54.6519916 507.246485,55.5883997 C508.51046,58.4912648 508.744529,59.1467505 509.35311,61.0663871 C509.633993,62.0964361 510.289388,63.594689 510.757527,64.3906359 C511.27248,65.1865828 511.646991,66.3102725 511.646991,66.825297 C511.646991,67.3403215 511.834246,67.9489867 512.11513,68.0894479 C512.349199,68.2299092 513.004594,69.7749825 513.519547,71.5073375 C514.455824,74.6911251 514.970777,76.0020964 516.141125,78.2494759 C516.515636,78.9049616 516.796519,79.8413697 516.796519,80.3095737 C516.796519,80.7309574 517.451914,82.4633124 518.200936,84.1020266 C518.996772,85.6939203 519.605353,87.3326345 519.605353,87.6603774 C519.605353,87.9412998 520.120306,89.2990915 520.7757,90.5632425 C521.384281,91.8742138 521.946048,93.278826 521.946048,93.74703 C521.946048,94.1684137 522.133303,94.9175402 522.367373,95.3857442 C523.397278,97.3053809 524.754881,100.67645 524.754881,101.285115 C524.754881,101.659679 525.269834,103.01747 525.925229,104.281621 C526.580623,105.592593 527.095576,106.950384 527.095576,107.371768 C527.095576,108.120894 527.236018,108.495458 528.687249,111.257862 C529.108574,112.053809 529.436271,113.037037 529.436271,113.458421 C529.436271,113.879804 529.67034,114.628931 529.90441,115.143955 C530.185293,115.65898 530.606618,116.501747 530.840688,117.016771 C531.308827,117.95318 531.168385,117.95318 524.333556,117.95318 L517.4051,117.95318 L516.141125,114.58211 C515.48573,112.709294 514.923963,110.976939 514.923963,110.696017 C514.923963,110.461915 514.409011,109.197764 513.753616,107.886792 C513.145035,106.622642 512.583269,105.077568 512.583269,104.515723 C512.583269,103.953878 512.396013,103.345213 512.11513,103.204752 C511.88106,103.064291 511.646991,102.549266 511.646991,102.127883 C511.646991,101.378756 510.663899,101.331936 500.083959,101.472397 C492.921432,101.566038 488.286857,101.80014 487.912346,102.127883 C487.584648,102.361985 487.210137,103.298393 487.022882,104.18798 C486.88244,105.077568 486.554743,105.920335 486.320673,106.060797 C486.086604,106.201258 485.899348,106.716282 485.899348,107.231307 C485.899348,107.746331 485.478023,109.057303 484.96307,110.087352 C484.448117,111.164221 484.026792,112.381551 484.026792,112.802935 C484.026792,113.177498 483.745909,113.973445 483.371398,114.48847 C482.996887,115.003494 482.622375,115.939902 482.528748,116.548567 L482.388306,117.719078 L469,118 L469.327697,116.220825 C469.468139,115.237596 470.123533,113.36478 470.732114,112.053809 C471.340227,110.742837 471.855179,109.431866 471.855179,109.150943 C471.855179,108.823201 472.510574,107.231307 473.259596,105.639413 C474.055433,104.000699 474.664013,102.268344 474.664013,101.84696 C474.664013,101.378756 474.99171,100.348707 475.413036,99.5527603 C476.864266,96.7903564 477.004708,96.4157932 477.004708,95.5730259 C477.004708,95.1048218 477.332405,94.3088749 477.706916,93.7938505 C478.081428,93.3256464 478.409125,92.5296995 478.409125,92.0614955 C478.409125,91.312369 479.953983,87.4730957 481.171145,85.1788959 C481.405214,84.8043326 481.920167,83.2124389 482.341492,81.7141859 C482.809631,80.2159329 483.558653,78.2026555 484.073606,77.2662474 C484.541745,76.3766597 484.96307,75.25297 484.96307,74.7847659 C484.96307,74.3633823 485.19714,73.8483578 485.431209,73.7078966 C485.712093,73.5674354 485.899348,73.0992313 485.899348,72.6778477 C485.899348,72.3032844 486.227045,71.2264151 486.64837,70.290007 C487.069696,69.3067785 487.584648,68.1362683 487.771904,67.6212439 C487.95916,67.1062194 488.474112,65.9357093 488.895437,64.9524808 C489.316763,64.0160727 489.64446,62.9392034 489.64446,62.5646401 C489.64446,62.1432565 489.878529,61.6750524 490.112599,61.5345912 C490.393482,61.39413 490.580738,60.8322851 490.580738,60.2704403 C490.580738,59.7554158 490.861621,58.7721873 491.236132,58.1167016 C491.610643,57.4143955 492.17241,55.9161426 492.500107,54.7456324 C493.576827,51.1872816 493.998152,51 500.364842,51 L500.435063,51 Z M226.566769,102.994789 C226.707441,86.2801238 226.61366,86.7549722 230.552497,82.9561846 C233.319062,80.2970333 234.819572,79.3948213 237.867482,78.5400941 C239.696228,78.0652456 240.118247,78.1127305 242.415902,79.2523667 C244.33843,80.2020636 245.135576,80.9618212 245.745158,82.243912 C247.104995,85.282942 247.104995,85.4253966 247.198777,103.612092 L247.292559,117.952515 L260,117.952515 L259.812436,99.8133045 C259.671764,89.7940023 259.4842,80.6294272 259.343527,79.4423061 C259.062181,77.1155487 256.905199,72.462034 255.170234,70.5626402 C254.560652,69.9453372 252.91947,68.8531858 251.512742,68.1883979 C249.40265,67.238701 248.183486,67.0012768 244.713558,67.0012768 C240.071356,66.953792 234.819572,68.2358828 232.662589,69.992822 C231.959225,70.5151553 231.20897,70.9425189 230.880734,70.9425189 C230.599388,70.9425189 229.333333,71.9871855 228.067278,73.2692763 L225.769623,75.5960337 L225.62895,71.7497613 L225.488277,67.856004 L219.767584,67.7135495 L214,67.571095 L214,118 L220.236493,117.857545 L226.426096,117.715091 L226.566769,102.994789 Z M188,118 L201,118 L201,51 L188,51 L188,118 Z M368.536364,108.785173 C367.152273,108.543179 366.15,107.865595 364.813636,106.316831 C363.238636,104.477675 363.047727,103.896888 363,101.670541 C363,99.3473956 363.143182,99.0570024 365.243182,96.9758514 C366.436364,95.7658799 367.820455,94.7495039 368.297727,94.7495039 C368.775,94.7495039 369.252273,94.5559085 369.443182,94.3139142 C369.729545,93.8299256 377.556818,93.9267233 380.515909,94.4591107 C383.713636,94.9914982 384,95.3786891 384,99.3957944 C384,102.928911 383.952273,103.074108 382.234091,104.816467 C380.515909,106.510427 377.413636,108.397982 375.886364,108.543179 C371.638636,109.075566 370.111364,109.123965 368.536364,108.785173 Z M560.662136,107.77787 C557.529798,106.820398 553.509185,103.182005 551.826138,99.7829808 C550.657356,97.4371751 550.750858,86.8571127 551.966392,84.4155598 C553.696191,80.920788 558.558327,78.0483729 562.765945,78.0004993 C567.58133,77.9526257 572.536969,81.3516503 574.827783,86.3783768 C576.230322,89.4901599 576.417328,95.2349902 575.155042,99.0170034 C574.220016,101.889419 570.479911,105.862926 567.58133,107.155513 C565.711278,107.92149 562.251681,108.256605 560.662136,107.77787 Z M620.208862,107.528411 C619.604239,107.194247 618.860089,106.955558 618.534523,106.90782 C617.790373,106.90782 612.860376,102.611425 612.860376,101.990834 C612.860376,101.752146 612.441791,101.03608 611.930188,100.367752 C611.093019,99.2697839 611,98.4105048 611,92.2046002 L611,85.2826297 L614.023111,82.3706283 C617.743863,78.7902987 621.418106,77.3581668 624.394708,78.2651837 C627.557347,79.2676759 631.929231,81.7023001 632.487344,82.7525301 C632.7664,83.2776451 633.464041,84.3278751 634.022154,84.9962033 C635.370926,86.6670238 636.347624,92.2046002 635.88253,95.2598148 C635.649983,96.5487334 635.463945,97.8376521 635.417436,98.0763407 C634.998851,101.227031 629.975836,106.90782 627.045744,107.576149 C624.441217,108.149001 621.278578,108.149001 620.208862,107.528411 Z M429.263725,105.615793 L423.152774,105.38128 L423.011752,84.0875234 C422.964745,72.3618864 423.058759,62.6061564 423.293796,62.3716436 C423.669854,61.9964232 435.468691,61.8557156 438.524167,62.1840334 C441.391614,62.5123513 444.588111,64.3884532 447.831616,67.624729 C450.981107,70.7671997 451.921253,72.3149838 453.190451,76.2547979 C453.519502,77.2866539 454.08359,83.7592056 453.989575,85.2131846 C453.942568,85.7291126 453.848553,86.8078712 453.801546,87.6521171 C453.754539,88.4494604 453.519502,89.2937062 453.331473,89.4813164 C453.143444,89.6689266 453.002422,90.2317572 453.002422,90.7476852 C453.002422,92.3892744 449.664902,98.6742159 447.878624,100.40961 C445.293221,102.942348 443.459936,103.927301 439.840372,104.771547 C438.665189,105.052962 437.348984,105.428183 436.925918,105.662696 C436.455845,105.897208 435.938765,106.037916 435.750735,105.991013 C435.515699,105.944111 432.648252,105.756501 429.263725,105.615793 Z M499.691649,91.7317254 L491,91.5882146 L491.64725,89.7704107 C492.017108,88.8136718 492.433198,87.3785634 492.618126,86.5653353 C492.895519,85.130227 493.172912,84.4605097 495.114664,80.0116738 C495.623218,78.7679132 496.08554,77.3328048 496.08554,76.9022723 C496.08554,76.4239029 496.640326,74.9887945 497.241344,73.64936 C497.888594,72.3577625 498.397148,70.7791433 498.397148,70.2050999 C498.397148,69.6310566 498.582077,69.0570132 498.813238,68.9135024 C498.998167,68.7699916 499.321792,67.9567635 499.506721,67.0956985 C499.876578,65.1822206 500.292668,65.708427 501.356008,69.2005241 C501.772097,70.7313063 502.326884,72.0707408 502.558044,72.2142516 C502.835438,72.4055994 503.020366,72.9796428 503.020366,73.5536861 C503.066598,74.1277295 503.436456,75.4671639 503.94501,76.5195767 C504.453564,77.5719895 504.823421,78.7679132 504.869653,79.1506088 C504.869653,79.5811413 505.054582,80.1073477 505.285743,80.3465324 C505.563136,80.6335541 506.164154,82.451358 506.672708,84.4126728 C507.181262,86.3739875 507.920977,88.8136718 508.290834,89.7704107 C509.123014,91.7795624 509.169246,92.114421 508.706924,91.9709102 C508.475763,91.8752363 504.453564,91.7795624 499.691649,91.7317254 Z M36.8204258,86.4248174 C36.8204258,85.9806093 36.9619113,85.8594616 37.1033967,86.1825221 C37.2448822,86.4652 37.1977204,86.8286431 37.0562349,86.9497907 C36.9147495,87.111321 36.773264,86.8690256 36.8204258,86.4248174 Z M36.7818766,78.5 C36.7818766,78.0709935 36.923362,77.8871335 37.1120093,78.0709935 C37.2534948,78.3161401 37.2534948,78.6838599 37.1120093,78.9290065 C36.923362,79.1128665 36.7818766,78.9290065 36.7818766,78.5 Z" id="Fill-1"></path>
        </g>
    </g>
</svg>
