<svg data-name="Group 27" xmlns="http://www.w3.org/2000/svg" width="95.542" height="41" viewBox="0 0 95.542 41"><defs><clipPath id="a"><path data-name="Clip 22" d="M0 0h4.733v6.147H0z" transform="translate(.142 .541)" fill="none"/></clipPath><clipPath id="b"><path data-name="Clip 25" d="M0 0h34.286v41H0z" fill="none"/></clipPath></defs><path data-name="Fill 1" d="M39.853 13.123l.857-.856a2 2 0 0 0 1.571.8c.67 0 .955-.259.955-.676 0-.338-.2-.551-.7-.619l-.571-.079c-1.234-.157-1.912-.709-1.912-1.779 0-1.136.865-1.857 2.173-1.857a2.7 2.7 0 0 1 2.24.923l-.823.844a1.876 1.876 0 0 0-1.373-.63c-.6 0-.868.247-.868.608 0 .394.209.574.747.664l.582.079c1.252.18 1.857.754 1.857 1.734 0 1.137-.934 1.925-2.361 1.925a2.883 2.883 0 0 1-2.374-1.081" fill="#fff"/><path data-name="Fill 3" d="M48.683 13.092h-.055a1.56 1.56 0 0 1-1.6 1.115c-1.178-.004-1.837-.837-1.837-2.3V8.192h1.405v3.568c0 .81.3 1.25.966 1.25a1 1 0 0 0 1.121-.934V8.192h1.408v5.876h-1.408z" fill="#fff"/><path data-name="Fill 5" d="M52.548 16.32h-1.406V8.193h1.406v.965h.044a1.6 1.6 0 0 1 1.581-1.1c1.452 0 2.252 1.087 2.252 3.061 0 1.99-.8 3.085-2.252 3.085a1.629 1.629 0 0 1-1.581-1.115h-.044v3.23zm1.174-7.08c-.692 0-1.175.389-1.175.946v1.872c0 .582.461.958 1.175.958a1.238 1.238 0 0 0 1.232-1.379v-1.012a1.244 1.244 0 0 0-1.232-1.385z" fill="#fff"/><path data-name="Fill 7" d="M59.476 14.203c-1.665 0-2.7-1.182-2.7-3.084s1.018-3.062 2.658-3.062c1.927 0 2.613 1.529 2.613 2.96v.473h-3.81v.146a1.293 1.293 0 0 0 1.395 1.421 1.738 1.738 0 0 0 1.461-.8l.758.866a2.833 2.833 0 0 1-2.375 1.08zm-.021-5.066a1.233 1.233 0 0 0-1.218 1.373v.091h2.35v-.1c0-.844-.434-1.364-1.132-1.364z" fill="#fff"/><path data-name="Fill 9" d="M62.717 14.068V8.192h1.405v1.216h.055a1.479 1.479 0 0 1 1.516-1.216h.308v1.363h-.439c-.945 0-1.439.27-1.439.912v3.6z" fill="#fff"/><path data-name="Fill 11" d="M69.493 14.203a1.631 1.631 0 0 1-1.582-1.115h-.043v.98h-1.406v-8.33h1.406V9.16h.043a1.6 1.6 0 0 1 1.582-1.1c1.452 0 2.252 1.087 2.252 3.061 0 1.987-.8 3.082-2.252 3.082zm-.451-4.965c-.692 0-1.175.389-1.175.946v1.868c0 .582.461.958 1.175.958a1.238 1.238 0 0 0 1.231-1.372v-1.014a1.244 1.244 0 0 0-1.231-1.386z" fill="#fff"/><path data-name="Fill 13" d="M73.886 14.069a1.259 1.259 0 0 1-1.406-1.419V5.739h1.406v7.182h.758v1.148z" fill="#fff"/><path data-name="Fill 15" d="M77.411 14.204c-1.64 0-2.658-1.182-2.658-3.085s1.018-3.062 2.658-3.062 2.668 1.173 2.668 3.062-1.026 3.085-2.668 3.085zm0-4.988c-.743 0-1.186.509-1.186 1.363v1.092c0 .86.443 1.373 1.186 1.373.761 0 1.2-.5 1.2-1.373v-1.092c-.003-.853-.451-1.363-1.2-1.363z" fill="#fff"/><path data-name="Fill 17" d="M80.365 11.119c0-1.88.956-3.061 2.647-3.061a2.216 2.216 0 0 1 2.253 1.486l-1.154.529a1.074 1.074 0 0 0-1.1-.856c-.78 0-1.175.563-1.175 1.384v1.07c0 .822.4 1.373 1.175 1.373a1.23 1.23 0 0 0 1.207-.923l1.076.529a2.239 2.239 0 0 1-2.282 1.554c-1.691 0-2.647-1.193-2.647-3.085" fill="#fff"/><path data-name="Fill 19" d="M85.812 5.739h1.405v5.02h.055l.758-1.058 1.282-1.508h1.6l-1.981 2.273 2.181 3.603h-1.665l-1.472-2.63-.758.845v1.785h-1.405z" fill="#fff"/><g data-name="Group 23"><path data-name="Clip 22" d="M90.809 8.058h4.733v6.147h-4.733z" fill="none"/><g data-name="Group 23" clip-path="url(#a)" transform="translate(90.667 7.517)"><path data-name="Fill 21" d="M.142 5.607l.856-.856a2 2 0 0 0 1.571.8c.67 0 .955-.259.955-.676 0-.338-.2-.551-.7-.619l-.571-.079C1.02 4.02.342 3.468.342 2.398c0-1.136.865-1.857 2.172-1.857a2.7 2.7 0 0 1 2.24.923l-.823.844a1.875 1.875 0 0 0-1.373-.63c-.6 0-.868.247-.868.608 0 .394.209.574.747.664l.582.079c1.252.18 1.857.754 1.857 1.734 0 1.137-.934 1.925-2.361 1.925A2.882 2.882 0 0 1 .142 5.607" fill="#fff"/></g></g><g data-name="Group 26"><path data-name="Clip 25" d="M0 0h34.286v41H0z" fill="none"/><g data-name="Group 26" clip-path="url(#b)"><path data-name="Fill 24" d="M34.286 21.086v-7.615h-1.028a1.852 1.852 0 0 1-1.829-1.871V8.2H4.572a1.172 1.172 0 0 1 0-2.343h26.857V0H2.857v4.1a1.157 1.157 0 0 1-1.142 1.171H0v3.515h1.715a1.157 1.157 0 0 1 1.142 1.171v4.1H29.27a1.608 1.608 0 0 1 1.587 1.628 1.648 1.648 0 0 1-.465 1.15L10.857 36.858 14.9 41z" fill="#fff"/></g></g></svg>
