<?xml version="1.0" standalone="no"?>
<!DOCTYPE svg PUBLIC "-//W3C//DTD SVG 20010904//EN"
 "http://www.w3.org/TR/2001/REC-SVG-20010904/DTD/svg10.dtd">
<svg version="1.0" xmlns="http://www.w3.org/2000/svg"
 width="444.000000pt" height="444.000000pt" viewBox="0 0 444.000000 444.000000"
 preserveAspectRatio="xMidYMid meet">
<metadata>
Created by potrace 1.11, written by Peter Selinger 2001-2013
</metadata>
<g transform="translate(0.000000,444.000000) scale(0.100000,-0.100000)"
fill="#000000" stroke="none">
<path d="M1017 4324 c-26 -8 -65 -24 -85 -35 -42 -24 -357 -204 -387 -222 -64
-39 -136 -145 -160 -239 -10 -35 -13 -402 -13 -1609 0 -1712 -4 -1605 59
-1716 40 -69 97 -117 241 -199 66 -38 150 -86 187 -107 139 -80 168 -90 266
-91 66 -1 103 4 139 18 41 16 256 135 685 381 108 63 122 71 211 123 59 35 66
40 147 89 30 18 55 33 58 33 2 0 91 52 197 116 106 64 207 124 223 134 30 17
585 348 637 379 68 41 280 167 296 176 402 231 413 250 412 688 -1 228 -4 264
-21 315 -23 68 -79 152 -122 185 -26 20 -197 121 -387 229 -19 11 -136 79
-260 151 -124 71 -283 163 -353 204 -71 41 -145 84 -166 96 -21 12 -114 66
-207 120 -93 54 -176 102 -184 107 -30 18 -426 247 -470 272 -25 14 -132 75
-238 137 -106 61 -197 111 -202 111 -6 0 -10 5 -10 10 0 6 -4 10 -10 10 -5 0
-38 17 -72 38 -130 80 -195 104 -282 108 -54 3 -97 -1 -129 -12z"/>
</g>
</svg>
