<svg version="1" xmlns="http://www.w3.org/2000/svg" width="682.667" height="682.667" viewBox="0 0 512.000000 512.000000"><path d="M359.8 59c-4.8 1-11.7 2.8-15.4 4-8 2.7-21.7 9.4-23.4 11.5-.7.8-1.7 1.5-2.2 1.5-3.4 0-23.4 19.4-29.8 29-2.4 3.6-4.4 6.6-4.5 6.7-.1.2-1.7-.2-3.6-.7-1.9-.6-5.4-1.3-7.9-1.6-2.5-.3-5.3-.7-6.3-1-2.3-.7-23.1-.7-25.5 0-.9.2-3.7.7-6.2 1-5.3.7-20.4 5.4-27.5 8.6-12.9 5.9-24.4 14.7-39.7 30.5-5.8 6-35.4 35.9-65.7 66.3-30.3 30.5-57 58.2-59.5 61.6-10.6 14.9-18 32.7-20.4 49.1-1.1 8-.7 31.5.7 37.5 4.1 17.8 11.9 34.8 21.3 46.8 31.9 40.7 84.2 54 132.3 33.7 14.2-6 24.6-14.4 53.3-43.2 13.4-13.3 24.7-24.3 25-24.3.4 0 11 10.3 23.5 22.9 27 27 28.5 28.5 36.4 34.3 27.1 20 64.8 26 97.8 15.8 22.1-6.9 43.4-22.3 56.8-41.1 8.8-12.4 16.9-31.5 19.1-45.4.4-2.2.9-8.7 1.2-14.4.2-5.8.6-10.7.9-10.9.3-.3-.1-1.2-.8-2-1-1.3-.9-1.4.1-.8 1 .6 1.2-16.2.9-91.1-.3-91.3-.3-91.8-2.5-100.3-4.2-15.7-8-24.4-16.7-37.5-12.6-19-33.9-35.2-56-42.6-3.8-1.3-7.2-2.4-7.5-2.4-1.6-.3-7.9-1.6-10-2.1-1.4-.3-8.6-.7-16-.9-10.1-.2-15.7.2-22.2 1.5zm31.2 43.4c21.7 3.5 40.2 17.7 49.4 37.8 5.8 12.5 5.9 13.9 6.1 66.1.1 26.3.1 47.6-.1 47.5-.2-.2-27.7-27.6-61.2-61-60.5-60.4-60.9-60.8-59.3-63.1 13.3-19.9 40.4-31.3 65.1-27.3zm-116.4 53c15.2 4.9 17.4 6.9 89.2 78.7 36.4 36.5 68 68.9 70.2 72 4.8 6.8 9.6 18.5 10.8 26.5 1.3 8.2.7 21.1-1.3 28.1-3.4 11.8-8.4 20.2-17.5 29.3-9.1 9.1-17.6 14.2-29.5 17.7-8.3 2.4-26.7 2.4-35-.1-7.7-2.4-15.9-6.5-21.9-11.1-8.5-6.5-136.9-135.6-140.7-141.5-25.1-38.8-5.3-89.3 39.6-101 10.2-2.7 25.3-2.1 36.1 1.4zM149.5 254c3.4 10.5 11.1 24.6 18.2 33.5 1.4 1.6 14.4 15.1 29.1 29.8l26.7 26.8-26.5 26.3c-24 23.8-27.3 26.6-34.5 30.3-26.9 13.8-57 9.1-78-12.1-13-13.2-19.5-29.8-19-48.2.4-13.5 4.1-25 11.6-36.1 1.8-2.6 17.7-19.3 35.3-37.1l32.1-32.3 1.6 6.8c.8 3.7 2.4 9.3 3.4 12.3zm338.2 65.2c-.3.8-.6.5-.6-.6-.1-1.1.2-1.7.5-1.3.3.3.4 1.2.1 1.9zm1 6c-.3.7-.5.2-.5-1.2s.2-1.9.5-1.3c.2.7.2 1.9 0 2.5zm1 6.5c-.3 1-.5.2-.5-1.7s.2-2.7.5-1.8c.2 1 .2 2.6 0 3.5z"/></svg>