<?xml version="1.0" encoding="UTF-8"?>
<svg width="80px" height="80px" viewBox="0 0 80 80" version="1.1" xmlns="http://www.w3.org/2000/svg" xmlns:xlink="http://www.w3.org/1999/xlink">
    <!-- Generator: Sketch 52.5 (67469) - http://www.bohemiancoding.com/sketch -->
    <title>noun_cryptocurrency_1941855</title>
    <desc>Created with Sketch.</desc>
    <g id="Page-1" stroke="none" stroke-width="1" fill="none" fill-rule="evenodd">
        <g id="Artboard" transform="translate(-11.000000, -10.000000)" fill="#ffffff" fill-rule="nonzero">
            <g id="noun_cryptocurrency_1941855" transform="translate(10.000000, 10.000000)">
                <path d="M49.49,31.51 C45.4443248,27.459825 39.1010902,26.8313263 34.3392829,30.0088406 C29.5774757,33.186355 27.7231982,39.2849852 29.9103701,44.575324 C32.097542,49.8656629 37.7170638,52.8744185 43.3325104,51.7616901 C48.9479571,50.6489616 52.9954985,45.7246297 53,40 C53.0025034,36.8164445 51.7398629,33.7623652 49.49,31.51 Z M48.07,47.07 C45.2102576,49.9306061 40.9088424,50.7867172 37.1717278,49.2390842 C33.4346131,47.6914512 30.9978645,44.0448973 30.9978645,40 C30.9978645,35.9551027 33.4346131,32.3085488 37.1717278,30.7609158 C40.9088424,29.2132828 45.2102576,30.0693939 48.07,32.93 C51.9738194,36.8349985 51.9738194,43.1650015 48.07,47.07 Z" id="Shape" fill="#df0074"></path>
                <path d="M74.17,20.17 C73.9297147,20.4198863 73.7214489,20.6986938 73.55,21 L67.55,21 L55.43,33.12 C54.7945415,31.7835433 53.9767464,30.5417061 53,29.43 L57,25.43 C57.6058736,25.7904155 58.2951528,25.9868601 59,26 C60.6188267,26.001274 62.0788192,25.0266905 62.6984897,23.5311605 C63.3181603,22.0356305 62.9753208,20.3140463 61.83,19.17 C60.2459125,17.6588864 57.7540875,17.6588864 56.17,19.17 C55.4200457,19.9207884 54.9991655,20.9388148 55,22 C55.0101064,22.7039438 55.2030875,23.3931619 55.56,24 L51.56,28 C50.2767859,26.8552691 48.8138984,25.929562 47.23,25.26 L53,19.49 L49.49,16 L54,11.45 C54.6067073,11.8060049 55.2965692,11.995717 56,12 C57.6188267,12.001274 59.0788192,11.0266905 59.6984897,9.53116046 C60.3181603,8.03563045 59.9753208,6.3140463 58.83,5.17 C57.2459125,3.65888639 54.7540875,3.65888639 53.17,5.17 C52.4200457,5.92078842 51.9991655,6.93881482 52,8 C52.0099785,8.70669149 52.2103462,9.39761434 52.58,10 L46.66,16 L50.19,19.53 L45.13,24.6 C42.1706053,23.8166452 39.0496373,23.8894678 36.13,24.81 L24,12.63 L24,8 C25.6188267,8.00127396 27.0788192,7.02669046 27.6984897,5.53116046 C28.3181603,4.03563045 27.9753208,2.3140463 26.83,1.17 C25.2459125,-0.341113608 22.7540875,-0.341113608 21.17,1.17 C20.4188918,1.92027303 19.9968534,2.93836301 19.9968534,4 C19.9968534,5.06163699 20.4188918,6.07972697 21.17,6.83 C21.4198863,7.07028527 21.6986938,7.27855114 22,7.45 L22,13.45 L34.12,25.57 C32.7835433,26.2054585 31.5417061,27.0232536 30.43,28 L26.43,24 C26.7904155,23.3941264 26.9868601,22.7048472 27,22 C27.0008345,20.9388148 26.5799543,19.9207884 25.83,19.17 C24.2459125,17.6588864 21.7540875,17.6588864 20.17,19.17 C19.0246792,20.3140463 18.6818397,22.0356305 19.3015103,23.5311605 C19.9211808,25.0266905 21.3811733,26.001274 23,26 C23.7039438,25.9898936 24.3931619,25.7969125 25,25.44 L29,29.44 C27.8552691,30.7232141 26.929562,32.1861016 26.26,33.77 L20.49,28 L17,31.51 L12.45,27 C12.8060049,26.3932927 12.995717,25.7034308 13,25 C13.0008345,23.9388148 12.5799543,22.9207884 11.83,22.17 C10.2459125,20.6588864 7.75408747,20.6588864 6.17,22.17 C5.02467924,23.3140463 4.68183972,25.0356305 5.30151028,26.5311605 C5.92118083,28.0266905 7.38117327,29.001274 9,29 C9.70669149,28.9900215 10.3976143,28.7896538 11,28.42 L17,34.34 L20.53,30.81 L25.6,35.87 C24.8166452,38.8293947 24.8894678,41.9503627 25.81,44.87 L13.63,57 L9,57 C9.00083446,55.9388148 8.57995428,54.9207884 7.83,54.17 C6.24591253,52.6588864 3.75408747,52.6588864 2.17,54.17 C0.607034158,55.7329658 0.607034158,58.2670342 2.17,59.83 C3.73296584,61.3929658 6.26703416,61.3929658 7.83,59.83 C8.07028527,59.5801137 8.27855114,59.3013062 8.45,59 L14.45,59 L26.57,46.88 C27.2054585,48.2164567 28.0232536,49.4582939 29,50.57 L25,54.57 C23.4301651,53.6843986 21.466068,53.9278817 20.16,55.17 C18.8876937,56.4528023 18.6332639,58.4292435 19.5391994,59.9924536 C20.4451349,61.5556637 22.2865027,62.3175162 24.0320781,61.8513493 C25.7776535,61.3851825 26.9940308,59.80674 27,58 C26.9898936,57.2960562 26.7969125,56.6068381 26.44,56 L30.44,52 C31.7232141,53.1447309 33.1861016,54.070438 34.77,54.74 L29,60.51 L32.51,64 L28,68.56 C26.431621,67.6935985 24.4830916,67.9401966 23.18,69.17 C21.8943927,70.4479858 21.6289296,72.4307652 22.5330809,74.0019254 C23.4372323,75.5730856 25.2849413,76.3398035 27.0358471,75.8703753 C28.7867528,75.400947 30.0030923,73.8127395 30,72 C29.9900215,71.2933085 29.7896538,70.6023857 29.42,70 L35.34,64 L31.81,60.47 L36.87,55.4 C39.8273098,56.2007717 42.9532576,56.1278329 45.87,55.19 L58,67.37 L58,72 C56.1294181,72.034104 54.5422004,73.3821516 54.205721,75.2225378 C53.8692415,77.0629239 54.876794,78.8853757 56.6142973,79.5791492 C58.3518007,80.2729226 60.3375079,79.6456592 61.3611744,78.0796623 C62.3848409,76.5136653 62.1626407,74.4431292 60.83,73.13 C60.5848221,72.889705 60.3050556,72.6874642 60,72.53 L60,66.53 L47.88,54.43 C49.2164567,53.7945415 50.4582939,52.9767464 51.57,52 L55.57,56 C55.2095845,56.6058736 55.0131399,57.2951528 55,58 C55.0014242,59.8097562 56.2177832,61.3930995 57.9660328,61.8609063 C59.7142823,62.328713 61.5588339,61.5644259 62.4638827,59.997229 C63.3689316,58.4300322 63.1089787,56.4504035 61.83,55.17 C60.523932,53.9278817 58.5598349,53.6843986 56.99,54.57 L52.99,50.57 C54.1347309,49.2867859 55.060438,47.8238984 55.73,46.24 L61.51,52 L65,48.49 L69.55,53 C69.1939951,53.6067073 69.004283,54.2965692 69,55 C69.0014242,56.8097562 70.2177832,58.3930995 71.9660328,58.8609063 C73.7142823,59.328713 75.5588339,58.5644259 76.4638827,56.997229 C77.3689316,55.4300322 77.1089787,53.4504035 75.83,52.17 C74.5219036,50.9390139 72.5659494,50.7000878 71,51.58 L65,45.66 L61.47,49.19 L56.4,44.13 C57.1833548,41.1706053 57.1105322,38.0496373 56.19,35.13 L68.37,23 L73,23 C73.0014242,24.8097562 74.2177832,26.3930995 75.9660328,26.8609063 C77.7142823,27.328713 79.5588339,26.5644259 80.4638827,24.997229 C81.3689316,23.4300322 81.1089787,21.4504035 79.83,20.17 C78.2459125,18.6588864 75.7540875,18.6588864 74.17,20.17 Z M54.59,6.59 C55.0787798,6.01924768 55.8462368,5.77063611 56.5768379,5.94637973 C57.3074391,6.12212335 57.8778767,6.6925609 58.0536203,7.42316206 C58.2293639,8.15376321 57.9807523,8.92122024 57.41,9.41 C56.6299251,10.1854472 55.3700749,10.1854472 54.59,9.41 C53.8145528,8.62992509 53.8145528,7.37007491 54.59,6.59 Z M22.59,2.59 C23.0787798,2.01924768 23.8462368,1.77063611 24.5768379,1.94637973 C25.3074391,2.12212335 25.8778767,2.6925609 26.0536203,3.42316206 C26.2293639,4.15376321 25.9807523,4.92122024 25.41,5.41 C24.6299251,6.18544719 23.3700749,6.18544719 22.59,5.41 C21.8145528,4.62992509 21.8145528,3.37007491 22.59,2.59 Z M7.59,26.41 C7.01553674,25.8389447 6.84224154,24.9777776 7.15110449,24.2289679 C7.45996744,23.4801583 8.18999246,22.9915854 9,22.9915854 C9.81000754,22.9915854 10.5400326,23.4801583 10.8488955,24.2289679 C11.1577585,24.9777776 10.9844633,25.8389447 10.41,26.41 C9.62992509,27.1854472 8.37007491,27.1854472 7.59,26.41 Z M6.41,58.41 C5.62992509,59.1854472 4.37007491,59.1854472 3.59,58.41 C3.01553674,57.8389447 2.84224154,56.9777776 3.15110449,56.2289679 C3.45996744,55.4801583 4.18999246,54.9915854 5,54.9915854 C5.81000754,54.9915854 6.54003256,55.4801583 6.84889551,56.2289679 C7.15775846,56.9777776 6.98446326,57.8389447 6.41,58.41 Z M27.41,73.41 C26.6299251,74.1854472 25.3700749,74.1854472 24.59,73.41 C24.0155367,72.8389447 23.8422415,71.9777776 24.1511045,71.2289679 C24.4599674,70.4801583 25.1899925,69.9915854 26,69.9915854 C26.8100075,69.9915854 27.5400326,70.4801583 27.8488955,71.2289679 C28.1577585,71.9777776 27.9844633,72.8389447 27.41,73.41 Z M59.41,77.41 C58.6299251,78.1854472 57.3700749,78.1854472 56.59,77.41 C56.0155367,76.8389447 55.8422415,75.9777776 56.1511045,75.2289679 C56.4599674,74.4801583 57.1899925,73.9915854 58,73.9915854 C58.8100075,73.9915854 59.5400326,74.4801583 59.8488955,75.2289679 C60.1577585,75.9777776 59.9844633,76.8389447 59.41,77.41 Z M73,53 C73.8063114,53.0033854 74.5317303,53.4906258 74.8398346,54.2357575 C75.1479389,54.9808892 74.9784616,55.8381601 74.41,56.41 C73.6299251,57.1854472 72.3700749,57.1854472 71.59,56.41 C71.0215384,55.8381601 70.8520611,54.9808892 71.1601654,54.2357575 C71.4682697,53.4906258 72.1936886,53.0033854 73,53 Z M57.59,20.59 C58.0787798,20.0192477 58.8462368,19.7706361 59.5768379,19.9463797 C60.3074391,20.1221233 60.8778767,20.6925609 61.0536203,21.4231621 C61.2293639,22.1537632 60.9807523,22.9212202 60.41,23.41 C59.6299251,24.1854472 58.3700749,24.1854472 57.59,23.41 C56.8145528,22.6299251 56.8145528,21.3700749 57.59,20.59 Z M21.59,23.41 C21.0155367,22.8389447 20.8422415,21.9777776 21.1511045,21.2289679 C21.4599674,20.4801583 22.1899925,19.9915854 23,19.9915854 C23.8100075,19.9915854 24.5400326,20.4801583 24.8488955,21.2289679 C25.1577585,21.9777776 24.9844633,22.8389447 24.41,23.41 C23.6299251,24.1854472 22.3700749,24.1854472 21.59,23.41 Z M24.41,59.41 C23.6299251,60.1854472 22.3700749,60.1854472 21.59,59.41 C21.0155367,58.8389447 20.8422415,57.9777776 21.1511045,57.2289679 C21.4599674,56.4801583 22.1899925,55.9915854 23,55.9915854 C23.8100075,55.9915854 24.5400326,56.4801583 24.8488955,57.2289679 C25.1577585,57.9777776 24.9844633,58.8389447 24.41,59.41 Z M31.1,49.9 C25.6330704,44.4325125 25.6333719,35.5684625 31.1006734,30.1013469 C36.567975,24.6342313 45.432025,24.6342313 50.8993266,30.1013469 C56.3666281,35.5684625 56.3669296,44.4325125 50.9,49.9 C48.2744496,52.5258183 44.7132784,54.0010102 41,54.0010102 C37.2867216,54.0010102 33.7255504,52.5258183 31.1,49.9 Z M59,56 C59.8063114,56.0033854 60.5317303,56.4906258 60.8398346,57.2357575 C61.1479389,57.9808892 60.9784616,58.8381601 60.41,59.41 C59.6299251,60.1854472 58.3700749,60.1854472 57.59,59.41 C57.0215384,58.8381601 56.8520611,57.9808892 57.1601654,57.2357575 C57.4682697,56.4906258 58.1936886,56.0033854 59,56 Z M78.41,24.41 C77.6299251,25.1854472 76.3700749,25.1854472 75.59,24.41 C75.0155367,23.8389447 74.8422415,22.9777776 75.1511045,22.2289679 C75.4599674,21.4801583 76.1899925,20.9915854 77,20.9915854 C77.8100075,20.9915854 78.5400326,21.4801583 78.8488955,22.2289679 C79.1577585,22.9777776 78.9844633,23.8389447 78.41,24.41 Z" id="Shape"></path>
            </g>
        </g>
    </g>
</svg>
