<?xml version="1.0" encoding="UTF-8"?>
<svg width="98px" height="98px" viewBox="0 0 98 98" version="1.1" xmlns="http://www.w3.org/2000/svg" xmlns:xlink="http://www.w3.org/1999/xlink">
    <!-- Generator: Sketch 55.2 (78181) - https://sketchapp.com -->
    <title>Group 2</title>
    <desc>Created with Sketch.</desc>
    <g id="Symbols" stroke="none" stroke-width="1" fill="none" fill-rule="evenodd">
        <g id="ProjectNoContractsState" transform="translate(-471.000000, -41.000000)">
            <g id="Group-5">
                <g id="Group-4" transform="translate(288.000000, 36.000000)">
                    <g id="Group-2" transform="translate(178.000000, 0.000000)">
                        <g id="file-text" transform="translate(39.000000, 36.000000)" fill="#FFFFFF">
                            <path d="M29.2909091,10.8 C29.1272727,10.6363636 29.1272727,10.4727273 28.9636364,10.3090909 L19.1454545,0.490909091 C18.9818182,0.327272727 18.8181818,0.163636364 18.6545455,0.163636364 C18.4909091,0 18.1636364,0 18,0 L4.90909091,0 C2.12727273,0 -1.77635684e-15,2.12727273 -1.77635684e-15,4.90909091 L-1.77635684e-15,31.0909091 C-1.77635684e-15,33.8727273 2.12727273,36 4.90909091,36 L24.5454545,36 C27.3272727,36 29.4545455,33.8727273 29.4545455,31.0909091 L29.4545455,11.4545455 C29.4545455,11.2909091 29.4545455,10.9636364 29.2909091,10.8 Z M19.6363636,5.56363636 L23.8909091,9.81818182 L19.6363636,9.81818182 L19.6363636,5.56363636 L19.6363636,5.56363636 Z M24.5454545,32.7272727 L4.90909091,32.7272727 C3.92727273,32.7272727 3.27272727,32.0727273 3.27272727,31.0909091 L3.27272727,4.90909091 C3.27272727,3.92727273 3.92727273,3.27272727 4.90909091,3.27272727 L16.3636364,3.27272727 L16.3636364,11.4545455 C16.3636364,12.4363636 17.0181818,13.0909091 18,13.0909091 L26.1818182,13.0909091 L26.1818182,31.0909091 C26.1818182,32.0727273 25.5272727,32.7272727 24.5454545,32.7272727 Z" id="Shape" fill-rule="nonzero"></path>
                            <path d="M21.2727273,18 L8.18181818,18 C7.2,18 6.54545455,18.6545455 6.54545455,19.6363636 C6.54545455,20.6181818 7.2,21.2727273 8.18181818,21.2727273 L21.2727273,21.2727273 C22.2545455,21.2727273 22.9090909,20.6181818 22.9090909,19.6363636 C22.9090909,18.6545455 22.2545455,18 21.2727273,18 Z" id="Path"></path>
                            <path d="M21.2727273,24.5454545 L8.18181818,24.5454545 C7.2,24.5454545 6.54545455,25.2 6.54545455,26.1818182 C6.54545455,27.1636364 7.2,27.8181818 8.18181818,27.8181818 L21.2727273,27.8181818 C22.2545455,27.8181818 22.9090909,27.1636364 22.9090909,26.1818182 C22.9090909,25.2 22.2545455,24.5454545 21.2727273,24.5454545 Z" id="Path"></path>
                            <path d="M8.18181818,14.7272727 L11.4545455,14.7272727 C12.4363636,14.7272727 13.0909091,14.0727273 13.0909091,13.0909091 C13.0909091,12.1090909 12.4363636,11.4545455 11.4545455,11.4545455 L8.18181818,11.4545455 C7.2,11.4545455 6.54545455,12.1090909 6.54545455,13.0909091 C6.54545455,14.0727273 7.2,14.7272727 8.18181818,14.7272727 Z" id="Path"></path>
                        </g>
                        <rect id="Rectangle" stroke="#7E50EC" stroke-width="4" opacity="0.5" transform="translate(54.000000, 54.000000) rotate(-315.000000) translate(-54.000000, -54.000000) " x="18" y="18" width="72" height="72" rx="12"></rect>
                    </g>
                </g>
            </g>
        </g>
    </g>
</svg>