<?xml version="1.0" encoding="UTF-8"?>
<svg width="104px" height="92px" viewBox="0 0 104 92" version="1.1" xmlns="http://www.w3.org/2000/svg" xmlns:xlink="http://www.w3.org/1999/xlink">
    <!-- Generator: Sketch 55.2 (78181) - https://sketchapp.com -->
    <title>Group 2</title>
    <desc>Created with Sketch.</desc>
    <g id="Dashboard" stroke="none" stroke-width="1" fill="none" fill-rule="evenodd">
        <g id="Dashboard-Page---No-Projects" transform="translate(-668.000000, -260.000000)">
            <g id="Group-4" transform="translate(488.000000, 237.000000)">
                <g id="Group" transform="translate(163.000000, 0.000000)">
                    <g id="Group-2">
                        <path d="M72,20.7320508 L109.30127,42.2679492 C111.157677,43.339746 112.30127,45.3205081 112.30127,47.4641016 L112.30127,90.5358984 C112.30127,92.6794919 111.157677,94.660254 109.30127,95.7320508 L72,117.267949 C70.1435935,118.339746 67.8564065,118.339746 66,117.267949 L28.6987298,95.7320508 C26.8423234,94.660254 25.6987298,92.6794919 25.6987298,90.5358984 L25.6987298,47.4641016 C25.6987298,45.3205081 26.8423234,43.339746 28.6987298,42.2679492 L66,20.7320508 C67.8564065,19.660254 70.1435935,19.660254 72,20.7320508 Z" id="Polygon" stroke="#7E50EC" stroke-width="5" opacity="0.5" transform="translate(69.000000, 69.000000) rotate(30.000000) translate(-69.000000, -69.000000) "></path>
                        <g id="project" transform="translate(51.000000, 51.000000)" fill="#FFFFFF">
                            <path d="M34.239,27 L34.239,9 L18,0 L1.761,9 L1.761,27 L18,36 L34.239,27 Z M8.733,12.864 L18,7.728 L27.267,12.864 L27.267,23.136 L18,28.272 L8.733,23.136 L8.733,12.864 Z" id="Shape" fill-rule="nonzero"></path>
                            <polygon id="Path" points="24.339 21.513 24.339 14.484 18 10.971 11.661 14.484 11.661 21.513 18 25.026"></polygon>
                        </g>
                    </g>
                </g>
            </g>
        </g>
    </g>
</svg>