<?xml version="1.0" encoding="UTF-8"?>
<svg width="894px" height="156px" viewBox="0 0 894 156" version="1.1" xmlns="http://www.w3.org/2000/svg" xmlns:xlink="http://www.w3.org/1999/xlink">
    <!-- Generator: Sketch 52.5 (67469) - http://www.bohemiancoding.com/sketch -->
    <title>Group</title>
    <desc>Created with Sketch.</desc>
    <g id="Page-1" stroke="none" stroke-width="1" fill="none" fill-rule="evenodd">
        <g id="Gray" transform="translate(-321.000000, -1096.000000)" fill="#FFFFFF">
            <g id="Group" transform="translate(321.000000, 1096.000000)">
                <text id="TENDERLY" font-family="Helvetica" font-size="127.300003" font-weight="normal">
                    <tspan x="226" y="128">TENDERLY</tspan>
                </text>
                <g id="Group-2" fill-rule="nonzero">
                    <path d="M140.097095,0 C124.351227,0.012543977 109.816545,8.36638702 102,21.8963958 C107.719991,23.4353415 113.061484,26.1162412 117.696003,29.7742324 C123.880531,19.8527507 135.968538,15.2025601 147.298489,18.3863167 C158.62844,21.5700734 166.445021,31.8135244 166.440622,43.4716445 L166.440622,77.6202902 L171.144999,82.2720579 C179.40198,90.4055094 184.030468,101.469474 184,113 L183.999697,43.4570469 C183.972606,19.4674989 164.332602,0.0268159741 140.097095,0 Z" id="Shape"></path>
                    <path d="M12.6397913,143.203972 C20.734559,151.397056 31.7142456,156 43.1629485,156 C54.6116514,156 65.591338,151.397056 73.6861057,143.203972 L92,124.670792 L79.7810703,112.315338 L61.4671759,130.848518 C51.3526914,141.084111 34.9538719,141.084111 24.8393873,130.848518 C14.7249028,120.612926 14.7249028,104.017751 24.8393873,93.7821583 L49.2724134,69.0565775 C47.3454191,55.4512571 51.8617487,41.7219143 61.4623425,32 L12.6446248,81.4022483 C4.54848155,89.5939406 0,100.705095 0,112.290882 C0,123.876668 4.54848155,134.987823 12.6446248,143.179515 L12.6397913,143.203972 Z" id="Shape"></path>
                    <path d="M171.300151,81.8726168 L166.645361,77.2217159 L122.150043,32.7122042 C122.07222,32.6294999 121.984669,32.5516606 121.901982,32.4689563 C121.72688,32.2938178 121.546915,32.1138143 121.362085,31.9435407 L121.152936,31.7489423 L120.540079,31.1797421 L120.457392,31.1067677 C119.789411,30.5099994 119.10846,29.9359342 118.414538,29.3845722 C113.827624,25.7324649 108.542517,23.0570738 102.883979,21.5227981 C99.1561206,20.5128942 95.3110343,20.0008719 91.4488577,20.0000659 C80.7428609,19.9813946 70.4097229,23.9314464 62.4451872,31.0873079 L62.3430444,31.1797421 L61.735052,31.7392124 L61.5064469,31.9532706 L61.0200529,32.4105768 L60.6990329,32.7219342 C43.766989,49.6968167 43.766989,77.1768913 60.6990329,94.1517738 L79.1382271,112.594834 L91.424538,124.883721 L109.854004,143.317051 C117.431455,150.929587 127.576222,155.440089 138.303186,155.965945 L138.342097,155.965945 L139.314885,156 L139.451075,156 L140.560054,156 C140.934577,156 141.304236,156 141.673896,156 L141.834406,156 L142.807194,155.965945 L142.855833,155.965945 C165.061073,154.803521 182.803668,137.057206 183.965849,114.84731 C183.965849,114.84731 183.965849,114.81812 183.965849,114.803526 C183.965849,114.487303 183.990168,114.166216 183.999896,113.830534 C183.999896,113.777019 183.999896,113.723505 183.999896,113.665125 C183.999896,113.300253 183.999896,112.930516 183.999896,112.555914 C184.025104,101.043827 179.453367,89.9982543 171.300151,81.8726168 Z M166.611313,113.922968 L166.611313,114.112701 C166.611313,114.497033 166.562674,114.8765 166.523762,115.255967 C166.526124,115.267195 166.526124,115.278793 166.523762,115.290022 C165.234778,127.546926 155.552517,137.233245 143.298452,138.525067 L143.25954,138.525067 C142.880153,138.563986 142.500765,138.593176 142.116514,138.612636 L141.931685,138.612636 C141.489066,138.612636 141.046448,138.646691 140.598965,138.646691 C140.151483,138.646691 139.713728,138.646691 139.27111,138.612636 L139.08628,138.612636 C138.702029,138.612636 138.322642,138.563986 137.943254,138.525067 L137.904343,138.525067 C131.950137,137.922354 126.389211,135.272838 122.169499,131.028164 L103.720577,112.594834 L97.1348029,106.017409 L91.424538,100.305947 L72.9950717,81.8726168 C62.8380973,71.6871358 62.8380973,55.2011671 72.9950717,45.015686 L73.2042211,44.8162227 C73.452282,44.5729748 73.690615,44.3297268 73.9532677,44.1059387 L74.172145,43.9162053 C74.4347977,43.6826872 74.6974505,43.4540341 74.9649671,43.235111 L75.0427902,43.1718665 C79.6728977,39.411015 85.4600019,37.3658553 91.424538,37.3825651 C93.4464598,37.3764099 95.4622652,37.6049702 97.4315032,38.0636594 C101.18915,38.9434477 104.70136,40.6558637 107.709007,43.0745673 L107.825742,43.1621366 L107.893837,43.2205161 C108.166217,43.4443042 108.433734,43.6778223 108.701251,43.9113403 L108.905536,44.0913438 C109.173053,44.3345918 109.435706,44.5778397 109.693494,44.8405475 L109.863732,45.0010912 L114.518522,49.6568571 L134.460674,69.6031898 L159.033295,94.1760986 C163.935998,99.0547681 166.683952,105.692231 166.664816,112.609429 C166.645361,113.04241 166.635633,113.470527 166.611313,113.922968 Z" id="Shape"></path>
                </g>
            </g>
        </g>
    </g>
</svg>