<?xml version="1.0" encoding="utf-8"?>
<!-- Generator: Adobe Illustrator 19.0.0, SVG Export Plug-In . SVG Version: 6.00 Build 0)  -->
<svg version="1.1" id="Layer_1" xmlns="http://www.w3.org/2000/svg" xmlns:xlink="http://www.w3.org/1999/xlink" x="0px" y="0px"
	 viewBox="0 0 1229.9 873" style="enable-background:new 0 0 1229.9 873;" xml:space="preserve">
<style type="text/css">
	.st0{fill:#FFFFFF;}
	.st1{fill:url(#XMLID_81_);}
	.st2{fill:url(#XMLID_82_);}
	.st3{fill:none;}
	.st4{fill:url(#XMLID_83_);}
	.st5{fill:url(#XMLID_84_);}
	.st6{fill:url(#XMLID_85_);}
	.st7{fill:url(#XMLID_86_);}
	.st8{fill:url(#XMLID_87_);}
	.st9{fill:url(#XMLID_88_);}
</style>
<g id="XMLID_126_">
	<g id="XMLID_127_">
		<g id="XMLID_235_">
			<path id="XMLID_253_" class="st0" d="M31,574.7c0-6,1.7-10.4,5.2-13.1c3.4-2.7,8.2-4,14.2-4c3.9,0,7.5,0.5,10.8,1.5
				c3.3,1,5.5,1.7,6.6,2.1v42.3h46.9c7.1,0,12.1,1.5,15,4.4c2.9,2.9,4.4,7.2,4.4,12.8c0,3.7-0.5,7.1-1.6,10.2
				c-1.1,3.1-1.9,5.3-2.6,6.6H67.9v72.1c0,5.6,0.8,10.2,2.3,13.7c1.5,3.6,3.6,6.4,6.3,8.6c2.7,2.2,5.8,3.7,9.4,4.5
				c3.6,0.9,7.3,1.3,11.2,1.3c6.2,0,12.1-1,17.5-2.9c5.4-1.9,9.3-3.8,11.6-5.5l14.9,24.6c-1.7,1.3-4.2,2.9-7.3,4.8
				c-3.1,1.9-6.9,3.8-11.5,5.5c-4.5,1.7-9.6,3.2-15.2,4.4c-5.6,1.2-11.7,1.8-18.4,1.8c-19,0-33.3-4.9-43-14.7
				c-9.7-9.8-14.5-22.7-14.5-38.6V574.7z"/>
			<path id="XMLID_250_" class="st0" d="M289.9,753.7c-1.7,1.1-4.4,2.6-8.1,4.5c-3.7,1.9-8.2,3.8-13.7,5.5
				c-5.5,1.7-11.9,3.2-19.1,4.5c-7.2,1.3-15.1,1.9-23.8,1.9c-12.1,0-23.3-1.8-33.8-5.5c-10.5-3.7-19.6-9.1-27.5-16.3
				c-7.9-7.2-14.1-16-18.6-26.5c-4.5-10.4-6.8-22.5-6.8-36c0-12.9,2.2-24.7,6.6-35.4c4.4-10.7,10.6-19.8,18.4-27.5
				c7.9-7.6,17.1-13.6,27.8-17.8c10.7-4.2,22.3-6.3,35.1-6.3c11.2,0,21.1,1.5,29.7,4.4c8.6,2.9,15.9,6.8,21.8,11.6
				c5.9,4.8,10.4,10.5,13.4,17c3,6.5,4.5,13.4,4.5,20.7c0,7.5-1.4,14.4-4.2,20.5c-2.8,6.1-7.8,11.4-14.9,15.8
				c-7.1,4.4-16.7,7.9-28.8,10.3c-12.1,2.5-27.4,3.7-45.9,3.7c-4.3,0-8.4,0-12.1-0.2c-3.8-0.1-7.8-0.3-12.1-0.5
				c1.7,11,7.1,19.9,16,26.7c8.9,6.8,21.7,10.2,38.3,10.2c5.6,0,10.8-0.4,15.5-1.3c4.7-0.9,9-1.9,12.8-3.2c3.8-1.3,7-2.6,9.7-3.9
				c2.7-1.3,4.7-2.3,6-2.9L289.9,753.7z M176.5,677.1c5,0.2,9.7,0.3,14.2,0.3c4.5,0,9,0,13.6,0c11.8,0,21.4-0.8,28.8-2.3
				c7.3-1.5,13-3.4,17.1-5.8c4.1-2.4,6.8-5.1,8.1-8.1c1.3-3,1.9-6.1,1.9-9.4c0-8.2-3.3-14.3-9.9-18.4c-6.6-4.1-14.7-6.1-24.4-6.1
				c-8,0-15,1.4-21,4.2c-6,2.8-11.1,6.5-15.2,11.2c-4.1,4.6-7.3,10-9.5,16C177.9,664.7,176.7,670.9,176.5,677.1z"/>
			<path id="XMLID_248_" class="st0" d="M309,667.8c0-10.8,2-20.4,6-28.9c4-8.5,9.5-15.7,16.5-21.7c7-5.9,15.3-10.4,24.9-13.6
				c9.6-3.1,20.1-4.7,31.5-4.7s22,1.6,31.7,4.7c9.7,3.1,18,7.7,25,13.6c7,5.9,12.4,13.1,16.3,21.7c3.9,8.5,5.8,18.2,5.8,28.9v97.9
				h-36.8v-88.6c0-14.6-3.6-25.8-10.7-33.4c-7.1-7.6-17.6-11.5-31.3-11.5c-14,0-24.5,3.8-31.5,11.5c-7,7.6-10.5,18.8-10.5,33.4v88.6
				H309V667.8z"/>
			<path id="XMLID_245_" class="st0" d="M621.2,544.6c0-5.8,1.7-10.1,5-12.9c3.3-2.8,8.1-4.2,14.4-4.2c3.9,0,7.4,0.5,10.7,1.5
				c3.2,1,5.4,1.7,6.5,2.1v145.8c0,15.7-2.2,29.4-6.6,41c-4.4,11.6-10.5,21.3-18.3,29.1c-7.8,7.8-16.9,13.6-27.5,17.5
				c-10.6,3.9-22.1,5.8-34.6,5.8c-12.7,0-24.4-2.2-35.1-6.5c-10.7-4.3-19.9-10.2-27.6-17.8c-7.8-7.5-13.8-16.6-18.3-27.1
				c-4.4-10.6-6.6-22-6.6-34.3c0-12.5,2.1-24,6.3-34.4c4.2-10.4,10-19.5,17.4-27.1c7.4-7.6,16.2-13.6,26.2-17.8
				c10-4.2,21-6.3,32.8-6.3c12.5,0,23.5,2.4,33,7.3c9.5,4.8,16.9,10.7,22.3,17.6V544.6z M621.2,684.6c0-7.3-1.2-14.2-3.7-20.7
				c-2.5-6.5-5.9-12.1-10.2-16.8c-4.3-4.7-9.5-8.5-15.7-11.2c-6.1-2.7-12.9-4-20.2-4c-7.5,0-14.3,1.3-20.4,4
				c-6,2.7-11.3,6.4-15.7,11c-4.4,4.6-7.8,10.2-10.2,16.6c-2.4,6.5-3.6,13.5-3.6,21c0,7.5,1.2,14.5,3.6,20.8
				c2.4,6.4,5.8,11.9,10.2,16.5c4.4,4.6,9.6,8.3,15.7,11c6,2.7,12.8,4,20.4,4c7.3,0,14.1-1.3,20.2-3.9c6.1-2.6,11.4-6.1,15.7-10.7
				c4.3-4.5,7.7-10,10.2-16.5C619.9,699.4,621.2,692.3,621.2,684.6z"/>
			<path id="XMLID_242_" class="st0" d="M821.5,753.7c-1.7,1.1-4.4,2.6-8.1,4.5c-3.7,1.9-8.2,3.8-13.7,5.5
				c-5.5,1.7-11.9,3.2-19.1,4.5c-7.2,1.3-15.1,1.9-23.8,1.9c-12.1,0-23.3-1.8-33.8-5.5c-10.5-3.7-19.6-9.1-27.5-16.3
				c-7.9-7.2-14.1-16-18.6-26.5c-4.5-10.4-6.8-22.5-6.8-36c0-12.9,2.2-24.7,6.6-35.4c4.4-10.7,10.6-19.8,18.4-27.5
				c7.9-7.6,17.1-13.6,27.8-17.8c10.7-4.2,22.3-6.3,35.1-6.3c11.2,0,21.1,1.5,29.7,4.4c8.6,2.9,15.9,6.8,21.8,11.6
				c5.9,4.8,10.4,10.5,13.4,17c3,6.5,4.5,13.4,4.5,20.7c0,7.5-1.4,14.4-4.2,20.5c-2.8,6.1-7.8,11.4-14.9,15.8
				c-7.1,4.4-16.7,7.9-28.8,10.3c-12.1,2.5-27.4,3.7-45.9,3.7c-4.3,0-8.4,0-12.1-0.2c-3.8-0.1-7.8-0.3-12.1-0.5
				c1.7,11,7.1,19.9,16,26.7c8.9,6.8,21.7,10.2,38.3,10.2c5.6,0,10.8-0.4,15.5-1.3c4.7-0.9,9-1.9,12.8-3.2c3.8-1.3,7-2.6,9.7-3.9
				c2.7-1.3,4.7-2.3,6-2.9L821.5,753.7z M708.1,677.1c5,0.2,9.7,0.3,14.2,0.3c4.5,0,9,0,13.6,0c11.8,0,21.4-0.8,28.8-2.3
				c7.3-1.5,13-3.4,17.1-5.8c4.1-2.4,6.8-5.1,8.1-8.1c1.3-3,1.9-6.1,1.9-9.4c0-8.2-3.3-14.3-9.9-18.4c-6.6-4.1-14.7-6.1-24.4-6.1
				c-8,0-15,1.4-21,4.2c-6,2.8-11.1,6.5-15.2,11.2c-4.1,4.6-7.3,10-9.5,16C709.5,664.7,708.3,670.9,708.1,677.1z"/>
			<path id="XMLID_240_" class="st0" d="M847.1,661.3c0-19.8,6.1-35.2,18.3-46.1c12.2-10.9,29-16.3,50.6-16.3
				c13.6,0,24.6,1.9,33.1,5.7c8.5,3.8,12.8,9.5,12.8,17.3c0,3.7-1,7.2-3.1,10.7c-2.1,3.4-3.7,5.6-5,6.5c-3.7-1.7-8.2-3.3-13.6-4.8
				c-5.4-1.5-11.5-2.3-18.4-2.3c-25.2,0-37.8,13.4-37.8,40.1v93.7h-36.8V661.3z"/>
			<path id="XMLID_238_" class="st0" d="M981.5,544.6c0-5.8,1.7-10.1,5.2-12.9c3.4-2.8,8.3-4.2,14.5-4.2c3.9,0,7.4,0.5,10.7,1.5
				s5.4,1.7,6.5,2.1v234.6h-36.8V544.6z"/>
			<path id="XMLID_236_" class="st0" d="M1043.2,620.6c0-5.8,1.7-10.1,5.2-12.9c3.4-2.8,8.2-4.2,14.2-4.2c3.9,0,7.5,0.5,10.8,1.5
				c3.3,1,5.5,1.7,6.6,2.1v86.3c0,12.7,3.4,22.8,10.2,30.4c6.8,7.5,17.3,11.3,31.5,11.3c13.1,0,23.5-3.8,31-11.5
				c7.5-7.6,11.3-18.9,11.3-33.8v-69.2c0-5.8,1.7-10.1,5.2-12.9c3.4-2.8,8.2-4.2,14.2-4.2c3.9,0,7.5,0.5,10.8,1.5
				c3.3,1,5.5,1.7,6.6,2.1v141.6c0,15.3-2,28.3-6.1,38.9c-4.1,10.7-9.9,19.4-17.4,26.3c-7.5,6.9-16.6,11.9-27.1,15
				c-10.6,3.1-22.3,4.7-35.2,4.7c-8.8,0-16.9-0.5-24.2-1.5c-7.3-1-13.8-2.1-19.5-3.4c-5.7-1.3-10.4-2.5-14.1-3.7
				c-3.7-1.2-6.3-2.1-7.8-2.7c1.7-4.5,3.3-9.1,4.9-13.7c1.5-4.6,3-9.2,4.5-13.7c1.5,0.6,3.9,1.5,7.1,2.6c3.2,1.1,7.1,2.1,11.6,3.1
				c4.5,1,9.6,1.8,15.3,2.4c5.7,0.6,11.8,1,18.3,1c8.4,0,15.9-0.9,22.6-2.7c6.7-1.8,12.3-5,17-9.5c4.6-4.5,8.2-10.5,10.7-17.9
				c2.5-7.4,3.7-16.8,3.7-28c-4.3,6.3-11,11.3-20.2,15c-9.2,3.8-19.2,5.7-30.2,5.7c-10.3,0-19.9-1.5-28.8-4.4
				c-8.8-2.9-16.4-7.1-22.6-12.6c-6.3-5.5-11.2-12.3-14.7-20.5c-3.6-8.2-5.3-17.6-5.3-28.1V620.6z"/>
		</g>
	</g>
	<g id="XMLID_25_">
		<linearGradient id="XMLID_81_" gradientUnits="userSpaceOnUse" x1="425.3889" y1="299.084" x2="577.7836" y2="299.084">
			<stop  offset="0" style="stop-color:#B6B0E7"/>
			<stop  offset="4.852235e-002" style="stop-color:#B2ACE7"/>
			<stop  offset="0.4188" style="stop-color:#9B91E7"/>
			<stop  offset="0.7479" style="stop-color:#8C81E7"/>
			<stop  offset="1" style="stop-color:#877BE7"/>
		</linearGradient>
		<path id="XMLID_177_" class="st1" d="M503.3,193l-75.2-43l0.1,85.5l-0.2,151.3c0,14.7,7.8,28.2,20.6,35.5l35.4,20.3
			c12.6,7.2,27.2,7.2,39.8,0.1l53.6-30.5"/>
		<linearGradient id="XMLID_82_" gradientUnits="userSpaceOnUse" x1="577.8812" y1="323.7126" x2="732.8812" y2="323.7126">
			<stop  offset="0" style="stop-color:#6254C4"/>
			<stop  offset="1" style="stop-color:#7567DB"/>
		</linearGradient>
		<polyline id="XMLID_176_" class="st2" points="655.9,366.4 655.9,279.6 655,279.1 655,279.1 577.9,235.2 577.9,236.8 578.1,412.3 
			578.1,412.3 578.1,412.3 		"/>
		<polygon id="XMLID_175_" class="st3" points="654.5,279.1 577.3,235.2 654.3,279.1 		"/>
		<polygon id="XMLID_174_" class="st3" points="655.3,193.2 655.3,193.2 658.6,191.3 		"/>
		<linearGradient id="XMLID_83_" gradientUnits="userSpaceOnUse" x1="655.8812" y1="258.112" x2="810.8812" y2="258.112">
			<stop  offset="0" style="stop-color:#5245B0"/>
			<stop  offset="1" style="stop-color:#6456D1"/>
		</linearGradient>
		<path id="XMLID_173_" class="st4" d="M731.2,236.1l-75.3,43.5v86.6l129.4-77c12.7-7.3,18.6-20.8,18.6-35.5v-18.3v-19.4
			c0-14.6-7-28.1-19.7-35.5L731.2,150L731.2,236.1L731.2,236.1z"/>
		<linearGradient id="XMLID_84_" gradientUnits="userSpaceOnUse" x1="655.7811" y1="214.8178" x2="807.5693" y2="214.8178">
			<stop  offset="0" style="stop-color:#6254C4"/>
			<stop  offset="1" style="stop-color:#7567DB"/>
		</linearGradient>
		<polyline id="XMLID_172_" class="st5" points="655.8,279.6 731.1,236.1 731.1,236.1 731.2,150 731.2,150 655.8,192.9 655.8,192.9 
					"/>
		<linearGradient id="XMLID_85_" gradientUnits="userSpaceOnUse" x1="502.3856" y1="367.1005" x2="502.3856" y2="367.1005">
			<stop  offset="0" style="stop-color:#7A6DD9"/>
			<stop  offset="1" style="stop-color:#877BE7"/>
		</linearGradient>
		<path id="XMLID_171_" class="st6" d="M502.4,367.1"/>
		<linearGradient id="XMLID_86_" gradientUnits="userSpaceOnUse" x1="503.3396" y1="366.1918" x2="503.3396" y2="366.1918">
			<stop  offset="0" style="stop-color:#7A6DD9"/>
			<stop  offset="1" style="stop-color:#877BE7"/>
		</linearGradient>
		<path id="XMLID_170_" class="st7" d="M503.3,366.2"/>
		<linearGradient id="XMLID_87_" gradientUnits="userSpaceOnUse" x1="419.7018" y1="238.7503" x2="889.498" y2="238.7503">
			<stop  offset="0" style="stop-color:#7A6DD9"/>
			<stop  offset="1" style="stop-color:#877BE7"/>
		</linearGradient>
		<path id="XMLID_169_" class="st8" d="M433.4,65.3c-3.3,5.9-5.3,13-5.3,20l0,63.9l0.2,0.8l72.4,42.9v86v0.6v90l77.1,42.5
			l-0.1-176.4l0,0l78,43.9l0,0V279v-86.6"/>
		<linearGradient id="XMLID_88_" gradientUnits="userSpaceOnUse" x1="425.5718" y1="108.684" x2="835.5928" y2="108.684">
			<stop  offset="0" style="stop-color:#6254C4"/>
			<stop  offset="0.308" style="stop-color:#6659C8"/>
			<stop  offset="0.6598" style="stop-color:#7467D5"/>
			<stop  offset="1" style="stop-color:#877BE7"/>
		</linearGradient>
		<path id="XMLID_148_" class="st9" d="M655.8,192.9L655.8,192.9l75.4-42.9l0,0L614.9,82.6v-0.1l-91.5-52.7
			c-12.6-7.2-26.9-7.3-39.5,0l-35.3,20.1c-6.6,3.8-11.8,9.1-15.4,15.4c0,0,0,0,0,0"/>
	</g>
</g>
</svg>
